<?xml version="1.0" encoding="utf-8"?>
<svg viewBox="0 0 2819 983" xmlns="http://www.w3.org/2000/svg">
  <path id="Shape" fill-rule="evenodd" stroke="none" d="M 1884.873535 982.452637 C 1884.668091 982.654114 1882.925049 981.978577 1881 980.951416 C 1877.5 979.083801 1877.5 979.083801 1880.781372 979.041931 C 1882.845825 979.015564 1884.282349 979.572266 1884.654907 980.543152 C 1884.980591 981.391846 1885.078979 982.251099 1884.873535 982.452637 Z M 983.5 923.5 L 983.183533 65.308899 L 1005.841736 64.713867 C 1018.303772 64.386597 1211.719849 64.062683 1435.655273 63.994019 L 1842.810547 63.869141 L 1842.897949 494.68457 C 1842.947754 739.958313 1842.610107 924.912903 1842.11377 924.136841 C 1841.634399 923.387085 1841.075073 923.162109 1840.871094 923.636841 C 1840.664063 924.118286 1746.415283 924.391235 1627.75 924.254028 C 1510.737549 924.118713 1317.912476 923.893738 1199.25 923.754028 L 983.5 923.5 Z M 1895.932251 64.5 L 2755.5 64.5 L 2755.5 494.254608 L 2755.5 924.009277 L 2325.75 924.254639 C 2089.387451 924.389587 1895.997803 924.387512 1895.994995 924.25 C 1895.99231 924.112488 1896.081665 790.237488 1896.193726 626.75 C 1896.305664 463.262512 1896.335449 307.224976 1896.259888 280 C 1896.184204 252.775024 1896.07959 193.150024 1896.027222 147.5 L 1895.932251 64.5 Z M 69.990837 64.5 C 761.610657 64.146912 927.077515 64.421631 928 64.994812 C 929.328796 65.820557 929.533691 114.845825 929.795105 494.550323 C 929.986816 773.088806 929.748413 922.962524 929.114197 922.570557 C 928.577393 922.238831 927.85553 922.424744 927.510071 922.983704 C 927.086182 923.669556 787.915649 924 499.5 924 C 211.084366 924 71.913795 923.669556 71.489922 922.983704 C 71.144455 922.424744 70.555397 922.156738 70.180901 922.388184 C 69.806404 922.619629 69.610435 729.689453 69.745415 493.65451 L 69.990837 64.5 Z M 910.5 905.5 L 910.5 83.5 L 499.246002 83.248779 L 87.992004 82.99762 L 88.010765 494.5 L 88.029526 906.002441 L 499.264771 905.751221 L 910.5 905.5 Z M 1824 905.985657 L 1824 83 L 1413 83 L 1002 83 L 1002 494.503571 L 1002 906.007141 L 1413 905.996399 L 1824 905.985657 Z M 2737 905.997498 L 2737 83 L 2325.549316 83 L 1914.098389 83 L 1914.123657 494.495209 L 1914.149048 905.990417 L 2325.574463 905.993958 L 2737 905.997498 Z M 2080 768 C 2108.416504 768 2119.329102 768.481812 2122.583252 769.07074 C 2125.837402 769.659668 2129.175049 770.5625 2130 771.077087 C 2130.824951 771.591675 2132.175049 772.314575 2133 772.683411 C 2133.824951 773.052307 2134.775391 773.762878 2135.111816 774.262451 C 2135.448242 774.762085 2136.05127 775.077637 2136.45166 774.963806 C 2136.852051 774.849976 2138.482178 775.719727 2140.073975 776.896667 C 2141.666016 778.073547 2144.212891 780.265747 2145.734131 781.76825 C 2148.371582 784.37323 2148.494141 784.917664 2148.375488 793.5 C 2148.306885 798.450012 2148.004883 803.174988 2147.70459 804 C 2147.404297 804.825012 2147.010254 806.032593 2146.829346 806.683594 C 2146.648193 807.334595 2145.375 809.081848 2144 810.566406 C 2142.625 812.051025 2140.712402 813.483337 2139.75 813.749451 C 2138.62915 814.059326 2138 815.214172 2138 816.96167 C 2138 818.46228 2138.787598 820.388306 2139.75 821.24176 C 2140.712402 822.095215 2142.269775 822.952515 2143.210693 823.146729 C 2144.151367 823.341064 2146.55957 825.075012 2148.562256 827 C 2150.564941 828.924988 2152.42334 831.174988 2152.692383 832 C 2152.961426 832.825012 2153.6521 834.485596 2154.227539 835.690186 C 2154.802979 836.894775 2155.001953 839.239807 2154.669678 840.901367 C 2154.337402 842.562988 2154.500732 844.191467 2155.032715 844.520264 C 2155.564697 844.848999 2156 846.441467 2156 848.059021 C 2156 849.676575 2155.564209 851 2155.031494 851 C 2154.498535 851 2154.354492 851.760498 2154.711182 852.690063 C 2155.073486 853.633606 2154.838623 854.553772 2154.179932 854.773376 C 2153.531006 854.989685 2153 856.216675 2153 857.5 C 2153 858.783325 2152.631836 859.983337 2152.182129 860.166687 C 2151.732178 860.349976 2151.103027 861.174988 2150.783691 862 C 2150.4646 862.825012 2148.626709 865.007996 2146.699707 866.851135 C 2144.772705 868.694275 2142.864746 870.118347 2142.459961 870.015747 C 2142.054932 869.913147 2141.448242 870.237915 2141.111816 870.737549 C 2140.775391 871.237122 2139.600098 872.021973 2138.5 872.481689 C 2137.399902 872.941406 2136.162598 873.246094 2135.75 873.158752 C 2135.337402 873.071411 2135 873.450012 2135 874 C 2135 874.549988 2133.237549 875 2131.083252 875 C 2128.929199 875 2127.002441 875.492859 2126.801514 876.095276 C 2126.558594 876.824158 2118.921631 877.367249 2103.968262 877.718994 C 2091.610596 878.009644 2081.162598 877.891846 2080.75 877.457092 C 2080.337402 877.022339 2080 852.216675 2080 822.333313 L 2080 768 Z M 2191 831.358521 C 2191 868.694824 2191.30249 873.93512 2192.25 874.254028 C 2193.224609 874.582031 2193.19751 875.041199 2192.127441 876.337402 C 2191.09082 877.593323 2189.072998 878 2183.877441 878 C 2180.094971 878 2176.985596 877.775024 2176.967773 877.500061 C 2176.949951 877.225098 2176.889648 852.979858 2176.833496 823.621826 C 2176.777344 794.263794 2177.043457 769.73877 2177.424805 769.121765 C 2177.898438 768.355164 2184.254883 768 2197.5 768 C 2209.342529 768 2217.122314 768.388977 2217.5 769 C 2217.839844 769.549988 2221.016357 770 2224.559082 770 C 2228.186279 770 2231 770.436829 2231 771 C 2231 771.549988 2231.337402 771.927368 2231.75 771.838501 C 2232.162598 771.749695 2233.625 772.183289 2235 772.802002 C 2236.375 773.420776 2238.114014 774.654663 2238.864746 775.544067 C 2239.615234 776.433472 2240.456543 778.029785 2240.734131 779.091492 C 2241.011719 780.153198 2242.314209 781.291748 2243.628174 781.621521 C 2245.022217 781.971436 2246.171875 783.112366 2246.388428 784.360596 C 2246.592529 785.537231 2246.772705 787.845337 2246.788818 789.489685 C 2246.804932 791.134033 2247.309082 793.265381 2247.90918 794.226074 C 2248.509033 795.186829 2249 797.527405 2249 799.427429 C 2249 801.327393 2248.550049 803.160095 2248 803.5 C 2247.449951 803.839905 2247 806.016235 2247 808.336304 C 2247 811.71875 2246.437256 813.048401 2244.1604 815.046448 C 2242.598389 816.416931 2241.135986 818.011658 2240.9104 818.590332 C 2240.68457 819.169006 2239.535156 820.8479 2238.356201 822.321228 C 2237.177002 823.794556 2235.769531 825 2235.228516 825 C 2234.6875 825 2233.68457 825.674988 2233 826.5 C 2232.31543 827.325012 2230.671143 828 2229.346191 828 C 2228.02124 828 2226.686523 828.653442 2226.379883 829.452148 C 2226.073486 830.250793 2226.106934 831.363892 2226.454102 831.92572 C 2226.80127 832.487549 2227.027832 833.246277 2226.957275 833.611816 C 2226.886719 833.977295 2227.238037 834.551697 2227.737549 834.888184 C 2228.237061 835.22467 2229.02417 836.400024 2229.486572 837.5 C 2229.948975 838.599976 2230.366211 839.744812 2230.413574 840.043945 C 2230.461182 840.34314 2231.222656 841.693176 2232.105957 843.043945 C 2232.989014 844.394775 2234.062256 846.60791 2234.490479 847.962036 C 2234.918945 849.316162 2236.371826 851.291321 2237.719482 852.351318 C 2239.067139 853.411377 2240.436279 855.003418 2240.761963 855.889343 C 2241.087646 856.775208 2241.663818 857.724976 2242.042236 858 C 2242.420654 858.275024 2243.07666 859.625 2243.5 861 C 2243.92334 862.375 2244.591553 863.724976 2244.984863 864 C 2245.378174 864.275024 2246.119629 865.625 2246.63208 867 C 2247.144775 868.375 2248.18457 870.737488 2248.942627 872.25 C 2249.713135 873.787048 2251.150879 875 2252.202393 875 C 2253.237061 875 2255.016602 874.130798 2256.156982 873.06842 C 2257.479736 871.835999 2258.421875 869.3927 2258.759521 866.31842 C 2259.050781 863.668274 2259.561523 861.274658 2259.894531 860.999268 C 2260.227539 860.723816 2261.287598 858.999878 2262.25 857.168213 C 2263.212402 855.336548 2264 852.060303 2264 849.887573 C 2264 847.298645 2264.516846 845.738892 2265.5 845.361633 C 2266.324951 845.045044 2267 843.709167 2267 842.393005 C 2267 841.076843 2267.449951 840 2268 840 C 2268.550049 840 2269 839.362488 2269 838.583313 C 2269 837.804199 2268.4375 836.962036 2267.75 836.711914 C 2266.751221 836.348511 2266.752441 835.8797 2267.756348 834.37854 C 2268.447266 833.345337 2269.316895 831.825012 2269.688477 831 C 2270.060059 830.174988 2270.734863 829.34906 2271.188232 829.164612 C 2271.641602 828.980103 2271.777344 828.44873 2271.48999 827.983704 C 2271.202637 827.518677 2271.424805 826.85553 2271.983643 826.510071 C 2272.542725 826.164612 2273 824.388611 2273 822.563416 C 2273 820.73822 2273.675049 818.684692 2274.5 818 C 2275.324951 817.315308 2276 816.000244 2276 815.077576 C 2276 814.154907 2276.508545 812.891479 2277.129883 812.27002 C 2277.751465 811.64856 2278.041016 809.994873 2277.773438 808.595154 C 2277.455078 806.930115 2277.913574 805.483154 2279.099365 804.409973 C 2280.096436 803.507813 2281.219238 800.68396 2281.594727 798.134827 C 2281.970215 795.585693 2282.658447 793.252625 2283.123779 792.950317 C 2283.589111 792.647949 2284.272461 790.847961 2284.64209 788.950317 C 2285.011963 787.052612 2285.637207 785.275024 2286.031494 785 C 2286.426025 784.724976 2287.064941 783.042664 2287.451416 781.261475 C 2287.837646 779.480286 2288.569336 777.766235 2289.076904 777.452454 C 2289.584717 777.138672 2290 775.852356 2290 774.593994 C 2290 773.335571 2290.857422 771.317505 2291.905273 770.109253 C 2293.613525 768.139709 2294.621094 767.942871 2301.645752 768.206238 C 2309.480957 768.5 2309.480957 768.5 2310.190918 773.483521 C 2310.581543 776.224426 2311.373291 778.62439 2311.950439 778.816833 C 2312.527832 779.009277 2313 779.749084 2313 780.460876 C 2313 781.172729 2313.694092 782.331177 2314.54248 783.035156 C 2315.612549 783.923218 2315.765625 784.63446 2315.04248 785.357605 C 2314.468994 785.930908 2314 787.210022 2314 788.200012 C 2314 789.190002 2314.414307 790 2314.920654 790 C 2315.426758 790 2316.137695 791.349976 2316.5 793 C 2316.862305 794.650024 2317.573242 796 2318.079346 796 C 2318.585693 796 2319.015381 797.462524 2319.033936 799.25 C 2319.05249 801.037476 2319.937256 804.299988 2321 806.5 C 2322.062744 808.700012 2322.94751 811.962524 2322.966064 813.75 C 2322.984619 815.537476 2323.401123 817 2323.891602 817 C 2324.38208 817 2325.079102 818.179382 2325.440918 819.620789 C 2325.802734 821.062256 2326.751465 822.894409 2327.549316 823.692261 C 2328.347168 824.490051 2329 826.209167 2329 827.51239 C 2329 828.815674 2329.449951 830.160095 2330 830.5 C 2330.550049 830.839905 2331 832.441467 2331 834.059021 C 2331 835.676575 2331.414307 837 2331.920654 837 C 2332.426758 837 2333.153809 838.462524 2333.536133 840.25 C 2333.918213 842.037476 2334.679443 844.056763 2335.227295 844.737244 C 2335.775391 845.417725 2335.955811 846.673035 2335.628174 847.526794 C 2335.300537 848.380554 2335.587646 850.073792 2336.266113 851.289551 C 2336.944824 852.50531 2337.903076 853.792114 2338.395752 854.149048 C 2338.888428 854.506104 2339.014893 855.518555 2338.677002 856.399048 C 2338.339111 857.279602 2338.498535 858 2339.031494 858 C 2339.564209 858 2340 859.323425 2340 860.940979 C 2340 862.558533 2340.457275 864.164612 2341.016357 864.510071 C 2341.575195 864.85553 2341.797363 865.518677 2341.51001 865.983704 C 2341.222656 866.44873 2341.358398 866.980103 2341.811768 867.164612 C 2342.265137 867.34906 2343.035156 868.400024 2343.523193 869.5 C 2344.01123 870.599976 2344.569336 872.026855 2344.763428 872.670776 C 2344.957275 873.314697 2344.314941 874.777161 2343.335938 875.920776 C 2341.962891 877.52417 2340.383057 878 2336.432861 878 C 2332.73999 878 2330.848145 877.489563 2329.655029 876.171265 C 2328.744629 875.165466 2328 873.68042 2328 872.871277 C 2328 872.062073 2327.584961 870.972534 2327.077881 870.450012 C 2326.570557 869.92749 2325.830811 867.700012 2325.433594 865.5 C 2325.036377 863.299988 2324.347656 861.261536 2323.902832 860.970032 C 2323.458008 860.678528 2322.781494 858.428528 2322.399414 855.970032 C 2322.017334 853.511536 2321.096191 850.612366 2320.352295 849.527466 C 2319.608643 848.442627 2319.000244 846.867615 2319.000732 846.027466 C 2319.001465 844.704956 2316.565674 844.531555 2300.845947 844.735046 C 2286.07959 844.92627 2282.370605 845.259705 2280.976074 846.521545 C 2280.033203 847.374878 2278.98291 850.108887 2278.641846 852.597107 C 2278.300781 855.085388 2277.341797 857.801086 2276.510742 858.632019 C 2275.679932 859.463013 2275 861.595703 2275 863.37146 C 2275 865.147156 2274.608154 867.027466 2274.12915 867.549988 C 2273.650146 868.07251 2272.964844 869.744385 2272.606201 871.26532 C 2272.247559 872.786255 2271.189453 874.923706 2270.254883 876.01532 C 2268.693115 877.839233 2267.277588 878 2252.777832 878 C 2238.239258 878 2236.840088 877.840088 2234.963623 875.963501 C 2233.843506 874.843445 2233.139404 873.583557 2233.398926 873.163696 C 2233.658447 872.743835 2232.983154 871.84613 2231.898682 871.168762 C 2230.813965 870.491455 2229.42041 868.713867 2228.801758 867.218628 C 2228.183105 865.723389 2227.749756 864.162476 2227.838623 863.75 C 2227.927246 863.337524 2227.550049 863 2227 863 C 2226.449951 863 2226 862.380127 2226 861.622437 C 2226 860.864807 2225.324951 859.684692 2224.5 859 C 2223.675049 858.315308 2223 857.065186 2223 856.221924 C 2223 855.378723 2221.939697 853.296326 2220.643799 851.59436 C 2219.348145 849.892456 2217.937256 847.375 2217.509033 846 C 2217.080811 844.625 2216.453613 843.275024 2216.115234 843 C 2215.776855 842.724976 2214.936523 841.599976 2214.247559 840.5 C 2213.558838 839.400024 2212.562744 837.599976 2212.03418 836.5 C 2211.505615 835.400024 2210.46582 833.998352 2209.723389 833.385193 C 2208.981201 832.772095 2204.464844 832.065247 2199.687012 831.814453 L 2191 831.358521 Z M 2365.936523 878 C 2362.736328 878 2359.813232 877.506653 2359.44043 876.903687 C 2359.067871 876.300781 2358.703857 852.058533 2358.631592 823.032104 C 2358.531494 782.941895 2358.790283 769.985535 2359.707764 769.128357 C 2360.37207 768.507751 2363.582031 768 2366.841064 768 C 2371.824951 768 2372.845947 768.302429 2373.264404 769.902954 C 2373.538086 770.949585 2373.84082 795.060547 2373.937012 823.483032 C 2374.067139 861.904724 2373.809814 875.524353 2372.933594 876.580078 C 2372.162598 877.508911 2369.74292 878 2365.936523 878 Z M 2479.5 877.5 C 2468.179688 878.03479 2466.341553 877.714172 2464.838135 876.353516 C 2463.775879 875.39209 2462.163574 873.006775 2461.255371 871.052795 C 2460.347168 869.098755 2459.204834 867.22467 2458.716797 866.888184 C 2458.228516 866.551697 2457.855225 865.993896 2457.887207 865.648682 C 2457.919189 865.303467 2457.652832 864.22876 2457.295654 863.260498 C 2456.938232 862.292236 2456.237061 861.22467 2455.737549 860.888184 C 2455.238037 860.551697 2454.855225 859.993896 2454.887207 859.648682 C 2454.919189 859.303467 2454.643555 858.234497 2454.274658 857.273254 C 2453.905762 856.312012 2452.409668 854.394775 2450.949951 853.012756 C 2449.490234 851.630737 2445.867188 845.549988 2442.898438 839.5 C 2439.929932 833.450012 2437.09082 827.382813 2436.5896 826.017395 C 2436.088379 824.651917 2434.587402 822.676758 2433.254395 821.628052 C 2431.921143 820.579346 2430.563721 818.996582 2430.238037 818.110657 C 2429.912354 817.224792 2429.336182 816.275024 2428.957764 816 C 2428.579346 815.724976 2427.92334 814.375 2427.5 813 C 2427.07666 811.625 2426.408447 810.275024 2426.015137 810 C 2425.621826 809.724976 2424.882813 808.375 2424.373047 807 C 2423.863281 805.625 2421.985352 801.428467 2420.199951 797.674377 C 2418.275879 793.628845 2416.454102 791.025269 2415.726807 791.281982 C 2415.052002 791.520264 2414.684326 792.566833 2414.909424 793.607666 C 2415.134766 794.648438 2415.498535 801.339783 2415.718018 808.477234 C 2415.937744 815.614746 2416.428467 821.689758 2416.808594 821.977234 C 2417.188965 822.264771 2417.578125 834.12262 2417.67334 848.328064 C 2417.825684 871.019165 2417.646973 874.389526 2416.201172 876.078064 C 2414.9729 877.512634 2413.248291 878 2409.400146 878 C 2406.36792 878 2403.796875 877.460083 2403.156982 876.689026 C 2402.406738 875.785095 2402.034424 859.14978 2401.958008 823.109741 C 2401.896729 794.362122 2402.092285 770.202026 2402.39209 769.420654 C 2402.789795 768.384216 2404.791748 768 2409.794189 768 C 2415.650879 768 2416.940674 768.328247 2418.634766 770.25 C 2419.72583 771.487488 2421.252197 773.849976 2422.0271 775.5 C 2422.802002 777.150024 2423.855225 779.625 2424.36792 781 C 2424.880615 782.375 2425.682617 783.650024 2426.149902 783.833313 C 2426.617432 784.016663 2427 784.818298 2427 785.614746 C 2427 786.411133 2427.647461 787.311218 2428.438965 787.614929 C 2429.230225 787.918579 2430.15918 789.448364 2430.503174 791.014404 C 2430.847168 792.580505 2431.774658 794.39801 2432.564209 795.053345 C 2433.354004 795.708679 2434 796.864807 2434 797.622437 C 2434 798.380127 2434.461182 799 2435.024658 799 C 2435.588379 799 2436.474365 800.012512 2436.993408 801.25 C 2437.512695 802.487488 2438.502197 804.400024 2439.192627 805.5 C 2439.883057 806.599976 2440.475586 807.724976 2440.509277 808 C 2440.543213 808.275024 2441.213867 809.625 2442 811 C 2442.786133 812.375 2443.483887 813.724976 2443.551025 814 C 2443.61792 814.275024 2444.053223 815.400024 2444.518311 816.5 C 2444.983643 817.599976 2445.76123 818.659668 2446.246582 818.854858 C 2446.732178 819.050049 2447.549072 820.175049 2448.062256 821.354858 C 2448.575439 822.534668 2449.558838 824.389648 2450.247559 825.476929 C 2450.936523 826.56427 2451.992432 827.914307 2452.594238 828.476929 C 2453.196045 829.039612 2455.529541 833.325012 2457.779541 838 C 2460.029541 842.674988 2462.634277 848.205139 2463.567871 850.289185 C 2464.501221 852.373169 2465.767822 853.891968 2466.382568 853.664185 C 2466.99707 853.436401 2467.297119 852.631226 2467.049072 851.875 C 2466.801025 851.118774 2466.423584 832.556091 2466.210205 810.624634 C 2465.882324 776.937256 2466.044922 770.526489 2467.257813 769.313599 C 2468.212158 768.359375 2470.303467 767.982178 2473.494385 768.188965 C 2476.425537 768.378845 2478.643311 769.084167 2479.189209 770 C 2479.694336 770.847717 2479.956299 794.547058 2479.791504 824.5 L 2479.5 877.5 Z M 2538.083252 877.921021 C 2535.5625 877.877625 2532.824951 877.585144 2532 877.271118 C 2531.175049 876.957031 2530.274902 876.373535 2530 875.974426 C 2529.725098 875.575317 2526.48291 875.060303 2522.79541 874.829895 C 2517.383057 874.49176 2515.711426 873.973328 2514.121338 872.139832 C 2513.037842 870.890686 2511.865234 869.930786 2511.515625 870.006836 C 2511.165771 870.082825 2510.258789 869.629761 2509.5 869 C 2508.741211 868.370239 2507.869629 867.885925 2507.563477 867.923706 C 2507.25708 867.961548 2505.880127 867.013 2504.503174 865.815918 C 2503.126465 864.618774 2502 863.062744 2502 862.358032 C 2502 861.65332 2504.041016 858.976807 2506.5354 856.410278 C 2511.070557 851.743774 2511.070557 851.743774 2515.096924 856.121887 C 2517.311279 858.529846 2520.10791 860.657837 2521.311523 860.85083 C 2522.515137 861.043762 2523.725098 861.551147 2524 861.978333 C 2524.274902 862.405518 2526.524902 863.081482 2529 863.480469 C 2531.475098 863.879395 2533.92749 864.609497 2534.449951 865.102905 C 2534.972412 865.596313 2536.209961 866 2537.199951 866 C 2538.189941 866 2539 865.549988 2539 865 C 2539 864.450012 2540.969971 864 2543.377441 864 C 2546.048828 864 2548.240479 863.415283 2549 862.5 C 2549.68457 861.674988 2551.449707 861 2552.922363 861 C 2554.39502 861 2556.18457 860.4375 2556.89917 859.75 C 2557.61377 859.0625 2558.458252 857.825012 2558.776123 857 C 2559.093994 856.174988 2559.612061 855.275024 2559.927002 855 C 2560.242188 854.724976 2560.474121 852.474976 2560.442383 850 C 2560.410889 847.525024 2559.752686 844.375 2558.97998 843 C 2558.207275 841.625 2557.652832 840.216064 2557.747803 839.86908 C 2557.842773 839.522095 2556.991211 838.397095 2555.855225 837.36908 C 2554.719482 836.341064 2553.499756 835.461121 2553.14502 835.413635 C 2552.790283 835.36615 2551.600098 834.948975 2550.5 834.486572 C 2549.399902 834.02417 2548.224609 833.237122 2547.888184 832.737549 C 2547.551758 832.237915 2546.993896 831.855286 2546.648682 831.887207 C 2546.303467 831.919189 2545.22876 831.652954 2544.260498 831.295593 C 2543.292236 830.938232 2542.274902 830.336182 2542 829.957703 C 2541.725098 829.579224 2540.375 828.923279 2539 828.5 C 2537.625 828.076721 2536.274902 827.401733 2536 827 C 2535.725098 826.598267 2534.375 825.923279 2533 825.5 C 2531.625 825.076721 2530.270508 824.37677 2529.98999 823.944519 C 2529.709473 823.512207 2528.24707 822.849121 2526.73999 822.470886 C 2525.23291 822.092651 2524 821.402344 2524 820.93689 C 2524 820.471436 2522.322754 819.776001 2520.272949 819.391418 C 2518.092041 818.9823 2515.706543 817.644714 2514.522949 816.167297 C 2513.4104 814.778625 2512.320068 813.1604 2512.100098 812.571228 C 2511.880127 811.982056 2511.378174 811.275024 2510.984863 811 C 2510.591553 810.724976 2509.92334 809.375 2509.5 808 C 2509.07666 806.625 2508.342041 805.249023 2507.867432 804.942322 C 2507.392822 804.63562 2506.890869 800.684387 2506.752197 796.161804 C 2506.592773 790.960815 2506.908691 787.6745 2507.611816 787.219482 C 2508.223389 786.82373 2508.919678 785.150024 2509.15918 783.5 C 2509.428467 781.646484 2511.379639 778.69519 2514.264893 775.777222 C 2516.833252 773.179688 2520.187012 770.755127 2521.717529 770.389343 C 2523.247803 770.02356 2525.109131 769.242554 2525.853516 768.653809 C 2526.5979 768.065063 2531.422363 767.399048 2536.574707 767.173706 C 2541.727051 766.948364 2546.74292 767.111206 2547.721191 767.535645 C 2548.699463 767.960083 2550.340332 768.200989 2551.367188 768.070984 C 2552.394287 767.940918 2553.72168 768.321777 2554.317383 768.917236 C 2554.912842 769.512756 2556.659912 770 2558.199951 770 C 2559.73999 770 2561 770.476563 2561 771.059021 C 2561 771.641479 2561.404785 771.86792 2561.89917 771.562256 C 2562.393799 771.256592 2564.22168 772.627319 2565.960938 774.608276 C 2567.700195 776.589233 2569.374023 777.959229 2569.680664 777.652649 C 2569.987305 777.346069 2570.939453 777.796692 2571.796875 778.653992 C 2573.043945 779.901001 2573.114258 780.541382 2572.148682 781.856384 C 2571.485107 782.760376 2570.67627 784.292419 2570.351563 785.260925 C 2570.026611 786.229492 2568.717529 787.283813 2567.442139 787.603882 C 2566.166504 787.924011 2563.745361 787.883362 2562.061523 787.51355 C 2560.377686 787.143677 2559 786.42688 2559 785.920532 C 2559 785.414246 2558.4729 785 2557.828857 785 C 2557.18457 785 2555.881104 784.297241 2554.931885 783.438416 C 2553.977539 782.574707 2550.590576 781.646301 2547.353271 781.361084 C 2544.134033 781.077454 2540.458252 780.33844 2539.185059 779.718872 C 2537.48877 778.893494 2536.686279 778.889648 2536.182617 779.704468 C 2535.804688 780.31604 2533.764648 781.141113 2531.649414 781.537964 C 2529.51123 781.939087 2526.507568 783.526245 2524.88501 785.112488 C 2523.279785 786.681641 2522.011475 788.235779 2522.066406 788.566101 C 2522.121582 788.896423 2521.904053 789.429199 2521.583252 789.75 C 2521.262451 790.070801 2521 791.806763 2521 793.607666 C 2521 795.408508 2521.480713 797.179077 2522.068115 797.542114 C 2522.655762 797.905212 2522.872803 798.888977 2522.550781 799.72821 C 2522.226563 800.573425 2522.753662 801.883667 2523.732666 802.665405 C 2524.70459 803.44165 2526.175049 804.36908 2527 804.726379 C 2527.824951 805.08374 2528.949951 805.857849 2529.5 806.446777 C 2530.050049 807.035645 2531.919434 808.301025 2533.654297 809.258728 C 2535.38916 810.216431 2537.729248 811 2538.854492 811 C 2539.97998 811 2541.260498 811.563232 2541.700195 812.251648 C 2542.140137 812.940063 2543.850098 814.117188 2545.5 814.867554 C 2547.149902 815.617859 2549.175049 816.623169 2550 817.101563 C 2550.824951 817.579956 2553.300049 818.902283 2555.5 820.0401 C 2557.699951 821.177917 2560.708008 822.359741 2562.184326 822.666321 C 2563.660889 822.9729 2565.974365 824.464478 2567.325439 825.980957 C 2568.676514 827.497437 2570.116699 829.80957 2570.525879 831.11908 C 2570.934814 832.428589 2571.623291 833.729492 2572.05542 834.01001 C 2572.487793 834.290527 2573.150879 835.753052 2573.529053 837.26001 C 2573.907471 838.767029 2574.61792 840 2575.108398 840 C 2575.598877 840 2576 842.662476 2576 845.916687 C 2576 849.170837 2575.614502 851.983337 2575.143311 852.166687 C 2574.672119 852.349976 2573.984863 854.144043 2573.616211 856.153442 C 2573.247314 858.162842 2572.282959 860.061218 2571.4729 860.37207 C 2570.662842 860.682922 2570 861.588867 2570 862.385254 C 2570 863.181702 2569.631836 863.983337 2569.182129 864.166687 C 2568.732178 864.349976 2568.111084 865.174988 2567.801758 866 C 2567.492432 866.825012 2566.397217 868.256165 2565.36792 869.18042 C 2564.338623 870.104614 2562.37207 871.347717 2560.998291 871.942871 C 2559.624268 872.537964 2556.968506 873.94873 2555.09668 875.07782 C 2552.890381 876.408691 2550.355225 877.03418 2547.88916 876.85614 C 2545.796875 876.705078 2543.766113 876.900635 2543.375977 877.29071 C 2542.98584 877.680847 2540.604248 877.964478 2538.083252 877.921021 Z M 1271.403931 873.787964 C 1265.700806 873.990784 1263.007446 873.695251 1262.29126 872.787964 C 1261.732056 872.07959 1260.987793 868.621033 1260.637207 865.102356 C 1260.286621 861.583618 1259.538208 858.14856 1258.974121 857.46875 C 1258.409912 856.789063 1257.726196 853.817993 1257.45459 850.866455 C 1257.183105 847.914917 1256.549805 844.375 1256.047363 843 C 1255.544922 841.625 1254.610962 836.450012 1253.972046 831.5 C 1253.333008 826.549988 1252.437988 821.599976 1251.98291 820.5 C 1251.527832 819.400024 1250.887085 816.567871 1250.55896 814.206299 C 1250.230835 811.844788 1249.54895 809.144775 1249.043701 808.206299 C 1248.538452 807.267822 1247.881836 804.372314 1247.584595 801.771851 C 1247.287476 799.171387 1246.611694 796.246399 1246.08313 795.271851 C 1245.554565 794.297363 1244.86377 790.897217 1244.548218 787.716064 C 1244.232666 784.534912 1243.558472 781.159912 1243.050049 780.216064 C 1242.541504 779.272217 1241.882813 776.703552 1241.586304 774.507874 C 1241.289795 772.312195 1240.567749 770.355957 1239.981812 770.160645 C 1239.252563 769.917542 1239.283813 769.362915 1240.080688 768.402771 C 1240.856323 767.468201 1243.36731 767 1247.603394 767 C 1253.713989 767 1253.987549 767.107178 1254.618774 769.75 C 1254.980103 771.262512 1255.650024 772.979614 1256.107544 773.565857 C 1256.564941 774.1521 1257.213013 777.302063 1257.547607 780.565857 C 1257.88208 783.829651 1258.545288 787.400024 1259.02124 788.5 C 1259.497192 789.599976 1260.162598 792.525024 1260.5 795 C 1260.837402 797.474976 1261.48584 800.400024 1261.941162 801.5 C 1262.396362 802.599976 1263.29834 807.099976 1263.945557 811.5 C 1264.592651 815.900024 1265.548096 822.424988 1266.068848 826 C 1266.589478 829.575012 1267.449219 833.260986 1267.979492 834.191101 C 1268.509644 835.121216 1269.24585 839.508667 1269.615479 843.941101 C 1270.098022 849.727844 1270.669922 852 1271.643799 852 C 1272.389648 852 1273 851.190002 1273 850.200012 C 1273 849.210022 1273.510254 847.889771 1274.133911 847.266113 C 1274.757568 846.642456 1275.024658 845.202393 1274.727539 844.06604 C 1274.430298 842.929688 1274.689575 840.312439 1275.303467 838.25 C 1275.91748 836.1875 1276.822632 834.219238 1277.314941 833.876099 C 1277.807251 833.532898 1278.452393 830.157898 1278.748657 826.376099 C 1279.0448 822.594238 1279.636841 819.270508 1280.064331 818.98999 C 1280.491699 818.709473 1281.160156 817.13446 1281.549805 815.48999 C 1281.939453 813.845459 1282.650146 812.07251 1283.12915 811.549988 C 1283.608154 811.027466 1284 808.540161 1284 806.022522 C 1284 803.504883 1284.630005 800.545471 1285.400146 799.446045 C 1286.170166 798.34668 1287.125732 794.759033 1287.52356 791.473572 C 1287.921265 788.18811 1288.589355 785.049988 1289.007935 784.5 C 1289.426514 783.950012 1290.093384 781.924988 1290.489868 780 C 1290.886353 778.075012 1291.613281 776.07251 1292.105347 775.549988 C 1292.597412 775.027466 1293 773.601807 1293 772.381775 C 1293 771.161743 1293.273193 769.451782 1293.606934 768.581787 C 1294.071167 767.37207 1295.689087 767 1300.484497 767 C 1304.294434 767 1307.152344 767.49054 1307.767456 768.25 C 1308.324219 768.9375 1308.773071 770.77771 1308.764893 772.339294 C 1308.756714 773.900879 1309.446533 775.875122 1310.297852 776.72644 C 1311.470703 777.899292 1311.584839 778.691956 1310.768921 779.998352 C 1309.953735 781.30365 1310.093994 782.296143 1311.346069 784.08374 C 1312.255737 785.382446 1313 788.144897 1313 790.222534 C 1313 792.30011 1313.449951 794 1314 794 C 1314.550049 794 1315.002808 795.462524 1315.006104 797.25 C 1315.009521 799.037476 1315.635376 801.694092 1316.396729 803.153442 C 1317.158203 804.612854 1318.105591 808.662842 1318.501953 812.153442 C 1318.898438 815.644043 1319.582397 818.950012 1320.021851 819.5 C 1320.461426 820.049988 1321.14502 822.299988 1321.540894 824.5 C 1321.93689 826.700012 1322.736084 829.09729 1323.317017 829.827271 C 1323.897949 830.557312 1324.494263 833.032288 1324.642212 835.327271 C 1324.790161 837.622314 1325.71875 842.570374 1326.705566 846.323059 C 1327.692505 850.075745 1328.949951 853.107117 1329.5 853.059448 C 1330.050049 853.011841 1330.529175 850.841431 1330.564819 848.236389 C 1330.600464 845.631348 1331.487427 839.450012 1332.535767 834.5 C 1333.584229 829.549988 1334.800415 825.243591 1335.238403 824.930237 C 1335.676392 824.616821 1336.279785 820.566833 1336.579102 815.930237 C 1336.87854 811.293579 1337.488403 806.810242 1337.93457 805.967163 C 1338.380737 805.124146 1339.075317 802.874146 1339.478149 800.967163 C 1339.881104 799.060242 1340.613281 797.07251 1341.105347 796.549988 C 1341.597412 796.027466 1342.002808 792.877502 1342.006104 789.549988 C 1342.009521 786.222534 1342.613281 782.348389 1343.347778 780.940857 C 1344.082397 779.533325 1344.999268 776.405701 1345.385498 773.990479 C 1345.771729 771.575317 1346.57312 769.014404 1347.16626 768.299622 C 1347.809204 767.524963 1350.441895 767 1353.683716 767 C 1359.122559 767 1359.122559 767 1358.469727 771.75 C 1358.110718 774.362488 1357.424316 777.849976 1356.944336 779.5 C 1356.464355 781.150024 1355.816895 785.170349 1355.505493 788.434143 C 1355.194092 791.697937 1354.516602 794.877563 1354 795.5 C 1353.483398 796.122437 1352.794678 799.302063 1352.46936 802.565857 C 1352.144165 805.829651 1351.49292 809.221375 1351.022339 810.103027 C 1350.551636 810.98468 1349.841675 813.909668 1349.444458 816.603027 C 1349.047363 819.296387 1348.402954 821.724976 1348.012451 822 C 1347.62207 822.275024 1346.999023 825.841553 1346.62793 829.925598 C 1346.256958 834.009705 1345.484619 837.916138 1344.911621 838.606567 C 1344.338623 839.296997 1343.646851 842.480469 1343.374512 845.680908 C 1343.102051 848.881409 1342.493896 852.221375 1342.022949 853.103027 C 1341.552002 853.98468 1340.873291 856.909668 1340.514771 859.603027 C 1340.15625 862.296387 1339.462402 865.400024 1338.973022 866.5 C 1338.483643 867.599976 1337.952026 869.625 1337.791626 871 C 1337.511353 873.402771 1337.192017 873.511475 1329.580811 873.795105 C 1324.059448 874.000854 1321.296265 873.698059 1320.454834 872.795105 C 1319.791016 872.082825 1318.974731 868.69342 1318.640625 865.263184 C 1318.306641 861.832947 1317.554443 858.23291 1316.968994 857.263184 C 1316.383423 856.293457 1315.500854 853.25 1315.00769 850.5 C 1314.514404 847.75 1313.544067 843.25 1312.851196 840.5 C 1312.158447 837.75 1311.233521 835.349976 1310.795776 835.166687 C 1310.358154 834.983337 1309.997437 833.18335 1309.994385 831.166687 C 1309.991333 829.150024 1309.520142 825.700012 1308.947266 823.5 C 1308.37439 821.299988 1307.507813 818.599976 1307.021362 817.5 C 1306.535034 816.400024 1305.839111 813.25 1305.474976 810.5 C 1305.11084 807.75 1304.292969 804.869019 1303.657715 804.0979 C 1303.022339 803.32666 1302.501953 800.851685 1302.501343 798.5979 C 1302.500244 795.110046 1302.165039 794.452393 1300.25 794.18042 C 1298.653198 793.953674 1297.966919 794.38916 1297.885986 795.68042 C 1297.823242 796.681213 1297.622314 798.774902 1297.439453 800.333008 C 1297.256714 801.891235 1296.675049 803.691223 1296.147095 804.333008 C 1295.619141 804.974854 1294.896973 807.75 1294.542358 810.5 C 1294.187744 813.25 1293.479004 816.267822 1292.967529 817.206299 C 1292.456055 818.144775 1291.735718 820.844788 1291.366577 823.206299 C 1290.997559 825.567871 1290.314087 827.650024 1289.847778 827.833313 C 1289.38147 828.016663 1288.997192 830.266663 1288.993896 832.833313 C 1288.990479 835.400024 1288.276855 838.849976 1287.408081 840.5 C 1286.539307 842.150024 1285.604736 845.974976 1285.331299 849 C 1285.057983 852.025024 1284.186523 855.956848 1283.394775 857.737488 C 1282.603027 859.518066 1281.527466 861.993103 1281.004517 863.237488 C 1280.481567 864.481873 1279.929199 867.299988 1279.776855 869.5 C 1279.5 873.5 1279.5 873.5 1271.403931 873.787964 Z M 1392.145996 873.5 C 1380.380127 874.02948 1379.32605 873.787781 1378.25 872.048096 C 1377.293335 870.501404 1377 858.21991 1377 819.713562 C 1377 781.914124 1377.298462 769.101563 1378.199951 768.200012 C 1378.859985 767.539978 1381.729858 767 1384.577515 767 C 1387.629883 767 1390.202026 767.538452 1390.843872 768.31189 C 1391.594971 769.216919 1391.965698 785.731201 1392.039307 821.56189 L 1392.145996 873.5 Z M 1440.927612 778.5 C 1410 779.140808 1410 779.140808 1410 774.270386 C 1410 771.591675 1410.540039 768.859985 1411.199951 768.200012 C 1412.089722 767.310303 1421.887329 767 1449.093018 767 C 1481.629761 767 1485.854736 767.179199 1486.393066 768.581787 C 1486.726807 769.451782 1487 771.611755 1487 773.381775 C 1487 775.151794 1486.459961 777.140015 1485.800049 777.799988 C 1484.9823 778.617676 1480.192993 779 1470.768555 779 C 1458.521851 779 1456.859253 779.2005 1456.256714 780.75 C 1455.882324 781.712524 1455.714233 802.427368 1455.883179 826.782959 C 1456.116821 860.489441 1455.899414 871.416321 1454.972656 872.532959 C 1454.185181 873.481812 1451.898804 874 1448.5 874 C 1445.346558 874 1442.803345 873.467957 1442.140747 872.669678 C 1441.37207 871.743408 1441.020142 857.238892 1440.982178 824.919678 L 1440.927612 778.5 Z M 1582 874.09137 L 1568.5 873.5 L 1568.231689 849.660278 C 1568.018799 830.748657 1567.671875 825.528992 1566.553101 824.410278 C 1565.427368 823.284546 1560.830566 823 1543.771484 823 C 1528.482544 823 1522.058472 823.341553 1521.199951 824.200012 C 1520.335938 825.064087 1520 831.866699 1520 848.5 C 1520 865.133301 1519.664063 871.935913 1518.800049 872.799988 C 1518.140015 873.460022 1515.270142 874 1512.422485 874 C 1509.238403 874 1506.803589 873.468262 1506.098755 872.618958 C 1505.261475 871.610107 1505.033569 857.52948 1505.253296 820.368958 C 1505.418701 792.391052 1505.905884 768.9375 1506.33606 768.25 C 1506.799927 767.508484 1509.25 767 1512.359009 767 C 1515.241577 767 1518.140015 767.539978 1518.800049 768.200012 C 1519.656006 769.05603 1520 775.331787 1520 790.093018 C 1520 808.039856 1520.209961 810.866577 1521.581787 811.393005 C 1522.451782 811.726868 1533.000244 812 1545.022827 812 C 1559.94458 812 1567.099365 811.648193 1567.567139 810.891357 C 1567.94397 810.281616 1568.307983 800.269165 1568.376099 788.641357 C 1568.5 767.5 1568.5 767.5 1574.407227 767.195435 C 1578.456177 766.986633 1580.574829 767.301208 1581.141968 768.195435 C 1581.597046 768.912964 1581.976318 793.033081 1581.984741 821.795654 L 1582 874.09137 Z M 701.5 869.387024 C 698.200012 869.622253 691.499023 869.217773 686.608948 868.488159 C 681.718872 867.758545 677.443909 866.744568 677.108948 866.234802 C 676.774048 865.725037 675.316284 865.018555 673.869507 864.664917 C 672.422729 864.311218 671.029541 863.220886 670.773499 862.241882 C 670.517517 861.262878 668.888733 859.042542 667.153992 857.307861 C 665.419312 855.57312 664 853.647766 664 853.029175 C 664 852.410583 665.190735 850.801025 666.645996 849.452271 C 668.598328 847.642883 670.414795 847 673.574585 847 C 676.108643 847 678.489746 847.632568 679.406494 848.549377 C 680.258667 849.401489 681.303284 850.685852 681.727905 851.403503 C 682.152588 852.121094 683.849976 853.031006 685.5 853.425476 C 687.150024 853.819946 690.075012 854.392212 692 854.697205 C 693.924988 855.002136 695.650024 855.64502 695.833313 856.125854 C 696.016663 856.606628 697.216675 857 698.5 857 C 699.783325 857 700.983337 856.614624 701.166687 856.143677 C 701.349976 855.672729 703.648315 855.051758 706.273987 854.763794 C 709.834778 854.373291 711.727295 853.510864 713.72113 851.370117 C 715.78418 849.155029 716.483826 847.244751 716.786621 843 C 717.130798 838.175415 716.830322 837.040344 714.339478 833.756897 C 712.777771 831.698242 710.465271 829.731323 709.200623 829.386108 C 707.935974 829.040894 706.339966 828.197144 705.653992 827.511108 C 704.968018 826.825134 703.302734 825.918823 701.953369 825.497131 C 700.604004 825.075439 699.275024 824.42804 699 824.058472 C 698.724976 823.688843 696.924988 822.762573 695 822 C 693.075012 821.237427 691.275024 820.311157 691 819.941528 C 690.724976 819.57196 689.375 818.923279 688 818.5 C 686.625 818.076721 685.274292 817.382935 684.998413 816.958191 C 684.722595 816.533447 683.098755 815.806641 681.389954 815.342957 C 679.681152 814.879333 676.667725 812.828369 674.693481 810.785278 C 672.575623 808.593628 670.828186 805.600952 670.431458 803.486206 C 670.061584 801.514832 669.138245 799.281067 668.379517 798.522339 C 667.620789 797.763672 667 796.24823 667 795.154785 C 667 794.061279 667.382263 793.016663 667.849487 792.833313 C 668.316711 792.650024 668.963379 789.872314 669.286499 786.660645 C 669.835022 781.207947 670.237976 780.463013 675.371521 775.410767 C 678.395203 772.434998 682.136047 769.515991 683.68457 768.924072 C 685.233032 768.332153 690.346924 767.596313 695.048767 767.28894 C 700.954956 766.902832 706.031494 767.22644 711.47168 768.335815 C 715.80249 769.218994 719.60553 770.335449 719.922913 770.816833 C 720.240295 771.298218 721.654968 771.974182 723.066589 772.319031 C 724.47821 772.663879 726.222534 774.047241 726.942871 775.393188 C 727.786133 776.968872 728.010498 779.204224 727.572937 781.670166 C 727.199158 783.776611 726.662048 786.287476 726.379272 787.25 C 726.080383 788.267639 724.891968 789 723.539612 789 C 722.260498 789 720.954956 788.325012 720.638367 787.5 C 720.321777 786.674988 719.354858 786 718.489563 786 C 717.624329 786 715.950317 785.099976 714.769653 784 C 713.588928 782.900024 711.845215 782 710.894775 782 C 709.944336 782 709.016663 781.565918 708.833313 781.0354 C 708.650024 780.504883 704.997192 779.942383 700.715942 779.7854 C 696.323059 779.624329 692.619934 779.935669 692.215942 780.5 C 691.822144 781.049988 690.780151 781.950012 689.90033 782.5 C 689.020508 783.049988 687.333008 784.387512 686.15033 785.472229 C 684.474487 787.009277 684 788.600525 684 792.683289 C 684 796.78479 684.475098 798.364746 686.188538 799.96106 C 687.392273 801.082458 689.028198 802 689.823914 802 C 690.619629 802 692.313293 803.125 693.587585 804.5 C 694.897034 805.912903 697.01825 807 698.46582 807 C 699.874573 807 702.033508 807.5625 703.26355 808.25 C 704.493591 808.9375 705.724976 809.768188 706 810.096008 C 706.275024 810.423828 707.737488 810.994934 709.25 811.365112 C 710.762512 811.735229 712 812.444641 712 812.941528 C 712 813.438354 713.6875 814.39502 715.75 815.067383 C 717.8125 815.739746 719.724976 816.607117 720 816.994995 C 720.275024 817.382813 721.006226 817.880066 721.625 818.100037 C 722.243774 818.320007 724.298645 820.075012 726.191345 822 C 728.084106 823.924988 729.965088 826.388733 730.371277 827.474915 C 730.777527 828.561157 731.556091 829.725647 732.101563 830.062744 C 732.646973 830.399841 733.184753 834.872437 733.296631 840.001892 C 733.443176 846.7229 733.150818 849.445313 732.25 849.747437 C 731.5625 849.978027 731 851.006836 731 852.03363 C 731 853.060486 730.35083 854.263916 729.557434 854.707886 C 728.764038 855.151917 727.751526 856.428406 727.307434 857.544556 C 726.863342 858.660645 725.583557 860.473633 724.463501 861.573425 C 723.343445 862.673157 720.847656 864.549072 718.917358 865.742065 C 716.987 866.935059 713.628418 868.147034 711.453796 868.435242 C 709.279236 868.723511 704.799988 869.151794 701.5 869.387024 Z M 243.78952 812.844727 C 246.665146 816.705566 248.692429 818.07019 250.149841 818.368164 C 251.607254 818.666138 253.733551 820.221436 254.874939 821.824341 C 256.016327 823.427307 257.400269 825.922546 257.950348 827.369385 C 258.500427 828.816223 259.411621 830 259.97525 830 C 260.576477 830 261 832.86853 261 836.940979 C 261 840.758545 260.567444 844.149292 260.038727 844.476074 C 259.51004 844.802795 258.784515 846.741882 258.426483 848.785095 C 258.068451 850.828308 257.086182 853.625 256.243622 855 C 255.401093 856.375 253.989105 858.178589 253.105881 859.007996 C 252.222641 859.837341 250.309372 861.279541 248.854156 862.212769 C 247.398941 863.146057 244.92395 864.21698 243.354156 864.592712 C 241.784378 864.968384 239.990707 865.674683 239.368256 866.16217 C 238.745789 866.649719 231.770798 867.270752 223.868256 867.542297 C 215.965714 867.813843 205.280045 868.140381 200.122299 868.268005 C 194.495331 868.407227 190.58931 868.09491 190.356308 867.487122 C 190.142746 866.930054 189.973328 844.679443 189.979828 818.04126 C 189.986984 788.762817 190.367813 769.232178 190.942764 768.657227 C 191.518814 768.081177 200.491653 767.913269 213.69693 768.231445 C 234.026291 768.721313 235.804169 768.914429 240 771.089172 C 242.475006 772.372009 245.09465 774.001709 245.821426 774.710815 C 246.548218 775.419861 247.731125 776 248.450104 776 C 249.169098 776 250.348907 777.462524 251.071899 779.25 C 251.794907 781.037476 252.817108 782.793335 253.34346 783.151855 C 253.869812 783.510376 254.320984 788.239868 254.346054 793.661743 C 254.384644 802.003357 254.092346 803.87915 252.445831 805.856201 C 251.375626 807.141235 249.824997 808.46405 249 808.795837 C 248.175003 809.127563 246.665146 810.174316 245.64476 811.121887 L 243.78952 812.844727 Z M 315.5 868.825928 C 310 868.75647 303.596375 868.429688 301.269714 868.099792 C 297.911011 867.623596 295.902161 866.391968 291.519714 862.122009 C 288.483887 859.164063 286 855.939087 286 854.955322 C 286 853.971558 285.5784 853.016663 285.06308 852.833313 C 284.54776 852.650024 283.619629 851.15918 283.000519 849.520386 C 282.381409 847.881531 281.340515 846.210815 280.687439 845.807556 C 279.804291 845.262329 279.5 835.262878 279.5 806.787231 C 279.5 768.5 279.5 768.5 285 768.240723 C 288.024994 768.098083 291.009796 768.32312 291.632904 768.740723 C 292.421875 769.269531 292.939911 780.125122 293.339325 804.5 C 293.654785 823.75 294.200775 840.909668 294.552704 842.632568 C 294.923309 844.447083 296.171814 846.289185 297.52002 847.010742 C 298.80014 847.695801 300.106415 849.287842 300.422821 850.548523 C 300.797791 852.04248 302.002106 853.061157 303.881195 853.473877 C 305.466858 853.822144 307.604797 854.743713 308.632141 855.521729 C 309.659454 856.299805 311.737488 856.950684 313.25 856.968201 C 314.762512 856.985718 316 856.549988 316 856 C 316 855.450012 317.952728 855 320.339355 855 C 324.113281 855 325.157562 854.482483 328.353271 851.028564 C 330.374268 848.844238 332.471558 845.889954 333.013885 844.46344 C 333.556244 843.036926 334 840.811584 334 839.51825 C 334 838.224854 334.550232 836.983276 335.222717 836.759094 C 336.143219 836.452271 336.542389 828.089905 336.837738 802.925781 C 337.112915 779.480957 337.568939 769.28064 338.365021 768.76532 C 338.989258 768.361206 341.789764 768.023743 344.588379 768.01532 C 349.676788 768 349.676788 768 350.332703 800.13623 C 350.693481 817.811157 350.692993 835.473633 350.331665 839.38623 C 349.911804 843.932678 349.131897 846.900024 348.170685 847.608459 C 347.343475 848.21814 346.712982 849.568115 346.769592 850.608459 C 346.826202 851.648804 346.681122 853.45874 346.447205 854.630493 C 346.213257 855.802307 345.201141 856.975647 344.198029 857.237976 C 343.194916 857.500305 340.268677 859.850586 337.695313 862.460938 C 334.644653 865.555359 331.708618 867.51062 329.25824 868.07959 C 327.191193 868.55957 321 868.895447 315.5 868.825928 Z M 403.5 868.814209 C 398 868.71814 391.256195 868.466614 388.513763 868.25531 C 385.762634 868.043335 381.968842 866.907776 380.050232 865.722046 C 378.137726 864.540039 374.811981 861.812012 372.659698 859.659729 C 370.507416 857.507446 368.52713 854.907776 368.259094 853.882751 C 367.969574 852.775635 368.731384 851.007385 370.135864 849.526794 C 371.970093 847.59314 373.51474 847.030701 377.027313 847.017273 C 380.763397 847.003052 381.991119 847.497437 384.052185 849.846252 C 385.747437 851.778198 388.308441 853.109497 392.024841 853.990723 C 395.036194 854.704712 397.649994 855.673889 397.833344 856.144409 C 398.016663 856.61499 400.341675 857 403 857 C 405.658325 857 407.983337 856.604736 408.166656 856.121582 C 408.350006 855.638489 409.967133 854.926758 411.760284 854.539917 C 413.553436 854.153076 415.57843 853.248535 416.260284 852.529907 C 416.942139 851.811157 418.287506 850.267822 419.25 849.100159 C 420.438965 847.657715 421 845.244324 421 841.571899 C 421 838.598999 420.631927 836.016663 420.182037 835.833313 C 419.732147 835.650024 419.071289 834.712524 418.713409 833.75 C 418.35556 832.787476 417.421783 832 416.638367 832 C 415.85495 832 414.977173 831.382935 414.687744 830.628662 C 414.398315 829.874451 412.892181 828.938782 411.34079 828.549377 C 409.789368 828.160034 408.290527 827.506775 408.01001 827.097778 C 407.729523 826.688782 406.611267 826.024719 405.525055 825.622131 C 404.438843 825.219543 403.313843 824.53009 403.025055 824.089966 C 402.736267 823.649902 400.700012 822.709412 398.5 822 C 396.299988 821.290588 394.263733 820.350098 393.974945 819.910034 C 393.686157 819.46991 392.561157 818.780457 391.474945 818.377869 C 390.388733 817.975281 389.274994 817.36615 389 817.024292 C 388.725006 816.682373 386.666534 815.867676 384.425659 815.213806 C 381.677429 814.411926 379.887848 813.125854 378.927307 811.262451 C 378.144073 809.743103 376.940033 808.140137 376.251617 807.700317 C 375.563232 807.260498 375 805.990845 375 804.878906 C 375 803.766907 374.274139 802.131287 373.386963 801.244141 C 372.042419 799.899536 371.889832 798.288574 372.470276 791.565552 C 373.001373 785.414063 373.711304 782.788086 375.461761 780.5 C 376.72406 778.849976 379.645721 775.762756 381.954346 773.639465 C 384.67038 771.141479 387.977936 769.292725 391.325897 768.401367 C 394.171661 767.643677 399.229858 767.018433 402.566345 767.011841 C 405.902832 767.005371 411.302826 767.484497 414.566345 768.076721 C 417.829865 768.668884 421.418762 769.742859 422.541687 770.463257 C 423.664612 771.183716 425.252502 771.936646 426.070313 772.136536 C 426.888123 772.336426 428.556885 773.512512 429.778625 774.75 C 431.000397 775.987488 432 778.125 432 779.5 C 432 780.875 431.549988 782 431 782 C 430.450012 782 430 782.863159 430 783.918213 C 430 784.973267 429.726868 786.548218 429.393005 787.418213 C 429.059174 788.288208 428.35202 789 427.821594 789 C 427.291138 789 426.182129 788.325012 425.357147 787.5 C 424.532135 786.674988 422.872528 786 421.669128 786 C 420.465698 786 418.919037 785.099976 418.232086 784 C 417.544769 782.899414 415.900055 782 414.57486 782 C 413.250366 782 412.016663 781.616943 411.833344 781.148682 C 411.649994 780.680481 408.503021 779.99707 404.840057 779.630066 C 400.054596 779.150574 397.792053 779.319824 396.801392 780.231384 C 396.043091 780.929138 394.417419 782.072632 393.188751 782.772583 C 391.960114 783.472473 390.065033 784.934998 388.977448 786.022583 C 387.588043 787.411987 387 789.350586 387 792.541809 C 387 795.532593 387.597626 797.682495 388.75 798.837341 C 389.712494 799.80188 391.723755 801.117188 393.219452 801.760193 C 394.715149 802.403198 396.510895 803.845215 397.209991 804.964661 C 397.980927 806.199097 399.548401 807 401.193481 807 C 402.685303 807 405.164581 807.560181 406.702942 808.244873 C 408.241333 808.929504 409.649994 809.829529 409.833344 810.244873 C 410.016663 810.660156 411.043304 811 412.114716 811 C 413.186157 811 414.311249 811.647522 414.614929 812.438904 C 414.91861 813.230286 416.574219 814.186829 418.294037 814.564575 C 420.013855 814.942322 422.745819 816.207336 424.365021 817.375671 C 425.984253 818.544067 428.400177 820.568604 429.733765 821.874695 C 431.067352 823.180786 432.43512 824.980774 432.773285 825.874695 C 433.11142 826.768616 433.907837 828.026733 434.54306 828.67041 C 435.178284 829.314209 435.994995 833.036377 436.358002 836.941956 C 436.765839 841.3302 436.567352 845.83252 435.83844 848.727295 C 435.189728 851.30365 433.689636 854.331482 432.504944 855.455811 C 431.320251 856.580078 430.090332 858.174988 429.77179 859 C 429.453247 859.825012 428.138855 861.400024 426.850922 862.5 C 425.562988 863.599976 424.057129 864.679993 423.504608 864.899963 C 422.952057 865.119934 422.274994 865.632324 422 866.038635 C 421.725006 866.444946 419.700012 867.274963 417.5 867.883118 C 415.299988 868.491272 409 868.910278 403.5 868.814209 Z M 462 868.693359 C 458.975006 868.799683 455.9375 868.649658 455.25 868.359985 C 454.273743 867.948669 454 856.914673 454 817.977905 C 454 768.122559 454 768.122559 458.577576 767.436096 C 461.317047 767.025269 464.131592 767.19458 465.586914 767.857666 C 468.018677 768.965637 468.018677 768.965637 467.759338 818.732788 C 467.5 868.5 467.5 868.5 462 868.693359 Z M 552.5 768.5 L 566.5 768.5 L 566.5 818.5 L 566.5 868.5 L 560.539246 868.806213 C 557.164368 868.979553 553.59259 868.584717 552.305847 867.896057 C 551.055847 867.227112 549.741333 865.760315 549.384644 864.636536 C 549.027954 863.512756 548.174866 862.031982 547.488892 861.346008 C 546.802856 860.660034 545.974365 859.034058 545.647766 857.732788 C 545.321167 856.431519 543.974548 854.789124 542.655212 854.083069 C 541.191223 853.299561 539.773682 851.182129 539.0177 848.649658 C 538.336426 846.36731 537.491211 844.275024 537.139465 844 C 536.787781 843.724976 535.37677 841.25 534.003906 838.5 C 532.631104 835.75 531.056091 833.049988 530.503906 832.5 C 529.951782 831.950012 528.825012 830.150024 528 828.5 C 527.174988 826.849976 526.049988 824.921875 525.5 824.215332 C 524.950012 823.508728 524.005432 822.371277 523.40094 821.687683 C 522.796448 821.004028 521.71875 818.657166 521.006042 816.472351 C 520.293335 814.287598 519.40509 812.275024 519.032166 812 C 518.659241 811.724976 518.024719 810.611267 517.622131 809.525085 C 517.219543 808.438843 516.53009 807.313843 516.089966 807.025085 C 515.649902 806.736267 514.706177 804.710938 513.992859 802.524353 C 513.279541 800.337708 511.669464 797.741272 510.414917 796.754395 C 509.160339 795.767578 507.981537 793.956604 507.795349 792.730103 C 507.609131 791.50354 507.637665 808.162476 507.858734 829.75 L 508.260712 869 L 501.880341 868.921021 C 498.371155 868.877625 494.9375 868.615112 494.25 868.337708 C 493.273712 867.943787 493 857.027832 493 818.48407 C 493 772.355164 493.114197 769.099854 494.75 768.599976 C 495.712494 768.305847 498.299988 767.809631 500.5 767.497314 C 502.700012 767.184998 505.850006 767.315186 507.5 767.786621 C 509.249146 768.286438 510.653748 769.447754 510.868774 770.571899 C 511.071564 771.632324 512.534058 773.741394 514.118774 775.258667 C 515.70343 776.776001 517 778.881348 517 779.937256 C 517 780.993164 517.607056 782.464233 518.34906 783.206177 C 519.091064 783.948181 520.279663 786.342834 520.990479 788.527649 C 521.701294 790.712402 522.894226 792.859863 523.641418 793.299683 C 524.388672 793.739502 525 794.714539 525 795.46637 C 525 796.218201 525.337524 796.983337 525.75 797.166687 C 526.162476 797.349976 527.174255 798.849976 527.998352 800.5 C 528.822449 802.150024 530.056519 803.85791 530.740723 804.29541 C 531.424927 804.73291 532.28241 806.307861 532.646301 807.79541 C 533.010193 809.282959 533.627991 810.724976 534.019165 811 C 534.4104 811.275024 535.046387 812.512512 535.432617 813.75 C 535.818787 814.987488 536.518677 816 536.987915 816 C 537.457153 816 538.144287 817.380371 538.514832 819.067566 C 538.885376 820.754761 539.780518 822.362305 540.504028 822.639893 C 541.227539 822.917542 542.120789 824.345154 542.489014 825.812378 C 542.8573 827.279541 543.460388 828.709473 543.829285 828.98999 C 544.198181 829.270508 545.126099 830.608276 545.891357 831.962769 C 546.656616 833.317322 547.853943 834.996826 548.552063 835.694946 C 549.250244 836.393066 550.086609 837.53479 550.410706 838.232178 C 550.859863 839.198486 551.176941 839.14325 551.744019 838 C 552.153198 837.174988 552.490723 821.200012 552.494019 802.5 L 552.5 768.5 Z M 592.5 768.5 C 649.5 768.5 649.5 768.5 649.5 774 C 649.5 779.5 649.5 779.5 629.685242 779.771362 C 612.083923 780.01239 609.650757 780.247437 607.90332 781.875488 C 606.118469 783.538269 605.962219 784.857361 606.218079 796.104126 L 606.5 808.5 L 623.956116 808.774536 C 636.369629 808.969727 641.64447 809.403015 642.216064 810.274536 C 642.658203 810.948486 642.902954 813.75 642.759949 816.5 C 642.5 821.5 642.5 821.5 625.211304 822 C 611.319946 822.401733 607.736694 822.7948 606.976624 824 C 606.456299 824.825012 606.023743 831.671631 606.01532 839.214844 C 606.001282 851.759521 606.165039 853.017944 607.934265 853.964844 C 609.091431 854.584106 618.304504 855 630.866882 855 C 650.554321 855 651.902527 855.117615 652.463074 856.883545 C 652.79187 857.919556 652.753845 860.732056 652.378601 863.133545 C 652.003357 865.535095 651.202209 867.830627 650.598206 868.23468 C 649.994202 868.638794 636.773376 868.976257 621.218628 868.98468 C 599.504089 868.99646 592.82605 868.709778 592.458313 867.75 C 592.194885 867.0625 592.096497 844.450012 592.239685 817.5 L 592.5 768.5 Z M 778.101074 868.890442 C 771.170471 868.8302 763.476501 868.384705 761.003357 867.900452 C 758.530212 867.41626 756.355164 866.565552 756.169983 866.01001 C 755.984863 865.454529 755.181702 865 754.385254 865 C 753.588867 865 752.671814 864.30835 752.347412 863.463013 C 752.023071 862.617676 750.409973 861.229126 748.762817 860.377319 C 747.115601 859.525574 745.542664 857.967163 745.267334 856.914307 C 744.992004 855.86145 744.144226 855 743.383362 855 C 742.622498 855 742 854.137512 742 853.083313 C 742 852.029175 742.337524 851.016663 742.75 850.833313 C 743.162476 850.650024 743.995361 849.599976 744.600891 848.5 C 745.20636 847.400024 746.9422 846.352905 748.458374 846.173218 C 749.974487 845.993469 752.629089 846.417053 754.357483 847.114502 C 756.085876 847.81189 757.859863 848.971497 758.299683 849.691284 C 758.739502 850.411072 759.714539 851 760.46637 851 C 761.218201 851 761.983337 851.339844 762.166687 851.755127 C 762.349976 852.170471 763.758667 853.070496 765.297058 853.755127 C 766.835449 854.439819 769.197937 855 770.547058 855 C 771.896179 855 773 855.450012 773 856 C 773 856.549988 774.934998 857 777.299988 857 C 779.664978 857 782.027527 856.604614 782.549988 856.121277 C 783.07251 855.638 785.211121 854.938171 787.302551 854.566101 C 789.49823 854.175537 791.37616 853.173462 791.746582 852.194824 C 792.099426 851.262695 792.863281 849.953125 793.444031 849.284668 C 794.024841 848.616272 795.0625 847.397766 795.75 846.576904 C 796.4375 845.756042 797 843.458252 797 841.470764 C 797 839.483276 796.4375 837.261353 795.75 836.533081 C 795.0625 835.804932 793.402649 833.839539 792.061401 832.165649 C 790.720215 830.491699 788.474731 828.833984 787.071472 828.481812 C 785.668152 828.129578 784.290527 827.487793 784.01001 827.055481 C 783.729492 826.62323 782.375 825.923279 781 825.5 C 779.625 825.076721 778.25061 824.344543 777.94574 823.872925 C 777.640869 823.401245 775.165894 822.732544 772.44574 822.386902 C 769.725586 822.04126 767.000366 821.137756 766.389771 820.379211 C 765.779114 819.620605 764.080505 819 762.61499 819 C 760.796631 819 759.652405 818.285522 759.01178 816.75 C 758.495422 815.512512 757.49408 814.027344 756.786499 813.449585 C 756.078918 812.871826 754.752136 812.113647 753.838074 811.764771 C 752.924011 811.415833 751.881165 810.20105 751.520691 809.065186 C 751.160156 807.929321 750.481323 807 750.012085 807 C 749.542847 807 748.843445 805.537476 748.457825 803.75 C 748.072266 801.962524 747.361511 800.349976 746.878357 800.166687 C 746.395264 799.983337 746 796.983337 746 793.5 C 746 790.016663 746.382996 787.016663 746.851074 786.833313 C 747.319153 786.650024 747.920959 785.318848 748.188477 783.875244 C 748.455933 782.431641 750.011597 779.943726 751.645447 778.346558 C 753.279358 776.74939 754.913391 774.66803 755.276733 773.721313 C 755.640015 772.774597 756.588867 772 757.385254 772 C 758.181702 772 758.983337 771.587463 759.166687 771.083252 C 759.349976 770.579102 762.264954 769.454102 765.644348 768.583252 C 769.023743 767.712463 774.648743 767.002625 778.144348 767.005798 C 781.639954 767.008972 787.200012 767.452881 790.5 767.99231 C 793.799988 768.531738 796.977783 769.624268 797.561768 770.420227 C 798.145752 771.216187 799.833252 772.171021 801.311768 772.542114 C 802.790283 772.913208 804 773.587708 804 774.041016 C 804 774.494324 804.900024 775.150879 806 775.5 C 807.27533 775.904785 808 777.013062 808 778.558716 C 808 779.948181 806.719727 782.206116 805 783.849548 C 803.349976 785.426392 802 787.230286 802 787.858276 C 802 788.486206 801.067871 789 799.928589 789 C 798.789307 789 797.301636 788.4375 796.62262 787.75 C 795.943604 787.0625 795.112122 785.770386 794.77478 784.878662 C 794.4375 783.986938 792.892212 782.938782 791.340759 782.549377 C 789.789368 782.160034 788.265259 781.429199 787.953857 780.925293 C 787.642456 780.421509 783.668884 779.894653 779.123657 779.754639 C 772.126648 779.539063 770.709473 779.768311 769.880127 781.25 C 769.341431 782.212524 768.233887 783 767.418945 783 C 766.604004 783 765.639038 783.787476 765.274597 784.75 C 764.910095 785.712524 764.024231 787.094666 763.305969 787.821411 C 762.587708 788.548218 762 790.653564 762 792.5 C 762 794.346436 762.674988 796.532166 763.5 797.357178 C 764.325012 798.182129 765 799.161987 765 799.534668 C 765 799.907288 766.205444 801.176941 767.678772 802.356079 C 769.1521 803.535217 770.8396 804.679993 771.428772 804.899963 C 772.017944 805.119934 772.724976 805.595459 773 805.956726 C 773.275024 806.317993 775.075012 807.241089 777 808.008057 C 778.924988 808.775024 780.650024 809.762024 780.833313 810.201294 C 781.016663 810.640564 783.122009 811 785.511902 811 C 787.901794 811 790.472778 811.615601 791.22522 812.368042 C 791.977661 813.120483 793.585266 814.050964 794.797729 814.435791 C 796.010132 814.820618 797.467468 816.005005 798.036255 817.067749 C 798.605042 818.130493 799.539856 819 800.113708 819 C 800.687561 819 802.862061 820.6875 804.945923 822.75 C 807.867554 825.641724 808.893555 827.587158 809.42865 831.25 C 809.810303 833.862488 810.544983 836 811.061279 836 C 811.577576 836 812 838.25 812 841 C 812 843.75 811.549988 846 811 846 C 810.450012 846 810 847.379578 810 849.065735 C 810 850.751892 809.51593 853.03595 808.924316 854.141418 C 808.332703 855.246887 806.055664 857.944336 803.864197 860.135742 C 801.672791 862.327209 797.81488 865.21814 795.290955 866.560059 C 791.083557 868.79718 789.654724 868.990906 778.101074 868.890442 Z M 2113.5 865.264282 C 2118.449951 865.035645 2123.399902 864.493835 2124.5 864.060242 C 2125.600098 863.626648 2128.545654 862.325012 2131.045654 861.167786 C 2133.545898 860.010498 2136.632813 857.955322 2137.905518 856.600708 C 2139.659668 854.733459 2140.34375 852.588013 2140.733398 847.731079 C 2141.119629 842.920776 2140.820557 840.424316 2139.533691 837.712036 C 2138.59082 835.72522 2136.397461 833.046997 2134.659668 831.760498 C 2132.921875 830.473999 2129.699951 828.667236 2127.5 827.745483 C 2125.300049 826.823792 2120.574951 825.848511 2117 825.578247 C 2113.425049 825.307983 2108.352051 824.796204 2105.726563 824.440918 C 2103.101318 824.085571 2099.871582 824.066406 2098.549561 824.398193 C 2097.213623 824.733521 2095.447021 826.402161 2094.572754 828.154419 C 2093.349854 830.60614 2093 834.685486 2093 846.498657 C 2093 859.697632 2093.229492 861.8974 2094.75 863.271179 C 2095.712402 864.140808 2098.300049 865.038513 2100.5 865.266113 C 2102.699951 865.493652 2108.550049 865.492859 2113.5 865.264282 Z M 219.083328 857 C 221.237503 857 223 856.549988 223 856 C 223 855.450012 224.462494 854.989258 226.25 854.976135 C 228.037506 854.963013 231.253326 854.545532 233.396286 854.048462 C 235.539246 853.551392 237.56424 852.722778 237.896286 852.207092 C 238.228333 851.691467 239.444214 850.975281 240.598236 850.61554 C 241.752274 850.255859 243.214783 848.824036 243.848236 847.433716 C 244.481705 846.043396 245 844.0271 245 842.952942 C 245 841.878845 245.449997 841 246 841 C 246.550003 841 247 839.868896 247 838.48645 C 247 837.104004 246.582855 835.191467 246.072998 834.23645 C 245.563141 833.281372 244.898346 831.702271 244.595673 830.727295 C 244.292999 829.752319 243.24765 828.652527 242.272675 828.283264 C 241.297699 827.914001 239.95311 827.136719 239.284698 826.555969 C 238.616287 825.975159 237.289108 824.835999 236.335419 824.024414 C 235.133209 823.001343 230.409698 822.262878 220.933609 821.616455 C 213.416306 821.103638 206.632477 820.927063 205.858429 821.22406 C 204.726532 821.658447 204.455872 824.967651 204.47554 838.13208 C 204.5 854.5 204.5 854.5 209.5 854.809082 C 212.25 854.979065 214.649994 855.541565 214.833328 856.059082 C 215.016663 856.576599 216.929169 857 219.083328 857 Z M 2300.950195 833 C 2309.259766 833 2312.038086 832.658936 2312.980957 831.52301 C 2313.885742 830.432617 2313.95752 828.665649 2313.255127 824.77301 C 2312.731934 821.872864 2310.610107 814.549988 2308.539795 808.5 C 2306.469727 802.450012 2304.015381 794.701355 2303.085449 791.280762 C 2302.155762 787.860229 2301.092041 784.758606 2300.72168 784.388306 C 2300.351318 784.017944 2299.362549 784.284241 2298.52417 784.97998 C 2297.514648 785.817749 2297 788.008301 2297 791.467468 C 2297 795.402832 2296.511963 797.131775 2295.019531 798.4823 C 2293.93042 799.468018 2292.751953 801.900269 2292.400879 803.887268 C 2292.050049 805.874268 2291.186768 808.849976 2290.482666 810.5 C 2289.778564 812.150024 2288.668213 815.525024 2288.015137 818 C 2287.362061 820.474976 2286.605957 823.631653 2286.334961 825.014771 C 2286.013672 826.654053 2286.591064 828.481689 2287.993652 830.264771 C 2290.10083 832.943604 2290.368164 833 2300.950195 833 Z M 2199 820.550903 C 2201.475098 820.287842 2207.324951 819.662903 2212 819.162231 C 2217.532959 818.569702 2221.745117 817.513 2224.067139 816.135132 C 2226.029053 814.970825 2228.596191 812.994385 2229.771729 811.74292 C 2231.220459 810.200928 2232.2771 807.096497 2233.050781 802.110291 C 2234.055908 795.632141 2233.980225 794.282288 2232.416016 790.813843 C 2231.438965 788.647278 2229.336182 785.777832 2227.743164 784.437317 C 2226.148682 783.095703 2223.558838 782 2221.982178 782 C 2220.406982 782 2218.839844 781.549988 2218.5 781 C 2218.142334 780.421448 2212.7229 780 2205.640869 780 C 2197.453613 780 2193.002686 780.397339 2192.199951 781.200012 C 2191.354248 782.045654 2191 787.78894 2191 800.65033 C 2191 816.959412 2191.186035 819.013794 2192.75 819.964966 C 2193.712402 820.550354 2196.524902 820.814026 2199 820.550903 Z M 2110 815.182861 C 2113.024902 814.964172 2117.828857 814.136475 2120.675049 813.343445 C 2123.521484 812.550415 2127.339844 810.897766 2129.160645 809.670776 C 2130.981201 808.443848 2133.033203 806.328491 2133.720703 804.969971 C 2134.408203 803.611511 2134.977051 800.003845 2134.985352 796.952942 C 2134.999023 791.797729 2134.717285 791.126648 2130.998047 787.452942 C 2128.796875 785.278809 2126.434326 783.232422 2125.748047 782.905396 C 2125.061523 782.57843 2123.493652 781.790894 2122.263672 781.155396 C 2120.991455 780.498169 2115.5271 780 2109.590576 780 C 2099.269531 780 2099.119629 780.034119 2096.076904 783.076904 C 2093 786.153809 2093 786.153809 2093 799.053833 C 2093 811.333984 2093.108154 812.023804 2095.25 813.408691 C 2096.487549 814.20874 2099.074951 815.02478 2101 815.221924 C 2102.925049 815.419067 2106.975098 815.401489 2110 815.182861 Z M 212.657211 811 C 216.054077 811 218.983337 810.616028 219.166672 810.146729 C 219.350006 809.67749 222.317734 809.044678 225.761627 808.74054 C 230.425385 808.328674 232.674347 807.589478 234.574753 805.84375 C 235.978088 804.554688 237.402542 802.825012 237.740189 802 C 238.07785 801.174988 238.836945 800.178894 239.427063 799.786499 C 240.017181 799.394043 240.5 796.694031 240.5 793.786499 C 240.5 789.722473 240.006454 788.00647 238.365753 786.365723 C 237.191925 785.191895 234.604416 783.694519 232.615753 783.038208 C 230.62709 782.381897 229 781.42981 229 780.922485 C 229 780.414368 223.995712 780 217.860245 780 C 208.423691 780 206.51738 780.267578 205.392044 781.75 C 204.466736 782.968933 204.053955 787.069824 204.031799 795.26355 C 204.011032 802.944214 204.430573 807.716614 205.24054 809.01355 C 206.260727 810.647156 207.578156 811 212.657211 811 Z M 1019.5 267.219299 L 1019.5 190.5 L 1133.5 190.40033 C 1196.199951 190.345459 1247.724976 190.414795 1248 190.554321 C 1248.275024 190.693848 1248.377197 208.063721 1248.227173 229.153992 L 1247.954346 267.5 L 1206.727173 267.420044 C 1184.052246 267.376099 1165.39624 267.404846 1165.269409 267.484009 C 1165.142578 267.56311 1166.197266 271.874084 1167.613159 277.063965 C 1169.028931 282.253784 1170.764648 288.075012 1171.470093 290 C 1172.175659 291.924988 1175.578003 302.275024 1179.031006 313 C 1182.484009 323.724976 1186.109131 335.424988 1187.086914 339 C 1188.064575 342.575012 1191.430664 353.375 1194.567139 363 C 1197.703491 372.625 1201.073242 383.424988 1202.05542 387 C 1203.037598 390.575012 1207.089966 403.400024 1211.060791 415.5 C 1215.031494 427.599976 1219.266479 441.099976 1220.471924 445.5 C 1221.677246 449.900024 1225.662842 462.83783 1229.328735 474.250763 C 1232.994629 485.663696 1238.321533 502.31369 1241.166382 511.250763 C 1244.01123 520.187866 1247.804199 532.450012 1249.595093 538.5 C 1251.386108 544.549988 1253.118408 550.737488 1253.444824 552.25 C 1253.771118 553.762512 1254.514038 555 1255.095703 555 C 1255.677368 555 1256.056396 553.537476 1255.93811 551.75 C 1255.819824 549.962524 1255.943848 547.825012 1256.213623 547 C 1256.483521 546.174988 1258.783691 539.308289 1261.325073 531.740601 C 1263.866577 524.172974 1272.524658 498.747986 1280.56543 475.240631 C 1288.606079 451.733276 1301.002075 415.174988 1308.111938 394 C 1315.221802 372.825012 1324.353027 345.9198 1328.403442 334.210632 C 1332.453735 322.501465 1343.045654 291.22644 1351.940918 264.710632 C 1360.836182 238.194763 1368.699585 214.924988 1369.415161 213 C 1370.130859 211.075012 1371.272827 207.924988 1371.952881 206 C 1372.633057 204.075012 1373.622437 200.63855 1374.151489 198.363464 C 1374.680664 196.088379 1375.657471 193.483093 1376.322266 192.573975 C 1377.405762 191.092163 1381.09375 190.920898 1411.939209 190.919983 C 1438.728516 190.919189 1446.625244 191.204773 1447.601318 192.209473 C 1448.290894 192.91925 1453.192261 206.427551 1458.493042 222.227905 C 1463.793945 238.028259 1472.401855 263.453247 1477.621948 278.727905 C 1482.841919 294.002563 1487.497925 307.849976 1487.968628 309.5 C 1488.439209 311.150024 1489.375 314.075012 1490.048096 316 C 1490.721069 317.924988 1492.10144 321.525024 1493.115479 324 C 1494.129517 326.474976 1502.361938 350.549988 1511.40979 377.5 C 1520.457764 404.450012 1528.405762 428.075012 1529.072144 430 C 1529.738403 431.924988 1530.830933 435.075012 1531.5 437 C 1532.169067 438.924988 1533.269775 442.075012 1533.946045 444 C 1534.622314 445.924988 1535.558228 448.849976 1536.026001 450.5 C 1536.493652 452.150024 1538.043701 456.650024 1539.470581 460.5 C 1540.897461 464.349976 1547.92395 484.825012 1555.085083 506 C 1562.246094 527.174988 1568.213013 546.043823 1568.344849 547.930786 C 1568.476685 549.817627 1569.11145 551.537109 1569.755371 551.751831 C 1570.399292 551.966431 1571.237061 550.87262 1571.617065 549.321045 C 1571.99707 547.76947 1572.597778 546.275024 1572.951904 546 C 1573.306152 545.724976 1573.656494 544.519165 1573.730469 543.320435 C 1573.804565 542.121643 1575.004272 537.621643 1576.396729 533.320435 C 1577.789063 529.019165 1580.807129 519.424988 1583.103516 512 C 1585.39978 504.575012 1587.831055 496.924988 1588.506348 495 C 1589.181641 493.075012 1591.580688 485.649994 1593.837402 478.5 C 1596.094238 471.350006 1600.216553 458.299988 1602.998047 449.5 C 1605.779663 440.700012 1609.188354 430.125 1610.57312 426 C 1611.957886 421.875 1613.715332 416.25 1614.478638 413.5 C 1615.241943 410.75 1618.823364 399.275024 1622.437378 388 C 1626.05127 376.724976 1629.49585 366.150024 1630.091919 364.5 C 1630.687988 362.849976 1631.546631 360.150024 1632 358.5 C 1632.453369 356.849976 1633.309937 354.150024 1633.903564 352.5 C 1634.49707 350.849976 1638.414551 338.474976 1642.609131 325 C 1646.803589 311.525024 1650.805542 298.924988 1651.502319 297 C 1652.199097 295.075012 1654.196411 289.131042 1655.940796 283.791199 C 1657.685181 278.451355 1659.375 272.463867 1659.696045 270.485718 C 1660.279663 266.889038 1660.279663 266.889038 1620.389893 267.348694 C 1598.450439 267.60144 1579.887329 267.468018 1579.138672 267.052063 C 1578.026611 266.434387 1577.789551 259.562012 1577.844482 229.530457 C 1577.88147 209.309448 1578.081543 192.255371 1578.289185 191.632507 C 1578.567017 190.798828 1608.461792 190.474792 1691.583374 190.40448 C 1772.918335 190.335693 1804.84314 190.618835 1805.726807 191.416992 C 1806.651978 192.252563 1806.970581 201.743286 1807.022827 230.012512 L 1807.091919 267.5 L 1779.840942 267.5 C 1752.589844 267.5 1752.589844 267.5 1751.409302 270 C 1750.76001 271.375 1749.687866 274.075012 1749.026611 276 C 1748.365356 277.924988 1747.453369 280.849976 1747 282.5 C 1746.546631 284.150024 1745.622314 287.075012 1744.946045 289 C 1744.269775 290.924988 1743.169067 294.075012 1742.5 296 C 1741.830933 297.924988 1740.730225 301.075012 1740.053955 303 C 1739.377686 304.924988 1738.453369 307.849976 1738 309.5 C 1737.546631 311.150024 1736.622314 314.075012 1735.946045 316 C 1735.269775 317.924988 1734.169067 321.075012 1733.5 323 C 1732.830933 324.924988 1731.730225 328.075012 1731.053955 330 C 1730.377686 331.924988 1729.453369 334.849976 1729 336.5 C 1728.546631 338.150024 1727.622314 341.075012 1726.946045 343 C 1726.269775 344.924988 1725.169067 348.075012 1724.5 350 C 1723.830933 351.924988 1722.730225 355.075012 1722.053955 357 C 1721.377686 358.924988 1720.453369 361.849976 1720 363.5 C 1719.546631 365.150024 1718.622314 368.075012 1717.946045 370 C 1717.269775 371.924988 1716.169067 375.075012 1715.5 377 C 1714.830933 378.924988 1713.730225 382.075012 1713.053955 384 C 1712.377686 385.924988 1711.453369 388.849976 1711 390.5 C 1710.546631 392.150024 1709.622314 395.075012 1708.946045 397 C 1708.269775 398.924988 1707.163696 402.075012 1706.488159 404 C 1705.8125 405.924988 1699.107422 426.281067 1691.587891 449.235718 C 1684.068237 472.190338 1672.479858 507.740356 1665.835938 528.235718 C 1659.192017 548.731079 1653.199707 567.075012 1652.519775 569 C 1651.839966 570.924988 1650.730225 574.075012 1650.053955 576 C 1649.377686 577.924988 1648.453369 580.849976 1648 582.5 C 1647.546631 584.150024 1646.622314 587.075012 1645.946045 589 C 1645.269775 590.924988 1644.169067 594.075012 1643.5 596 C 1642.830933 597.924988 1641.730225 601.075012 1641.053955 603 C 1640.377686 604.924988 1639.453369 607.849976 1639 609.5 C 1638.546631 611.150024 1637.622314 614.075012 1636.946045 616 C 1636.269775 617.924988 1635.169067 621.075012 1634.5 623 C 1633.830933 624.924988 1632.730225 628.075012 1632.053955 630 C 1631.377686 631.924988 1630.453369 634.849976 1630 636.5 C 1629.546631 638.150024 1628.622314 641.075012 1627.946045 643 C 1627.269775 644.924988 1626.169067 648.075012 1625.5 650 C 1624.830933 651.924988 1623.730225 655.075012 1623.053955 657 C 1622.377686 658.924988 1621.453369 661.849976 1621 663.5 C 1620.546631 665.150024 1619.622314 668.075012 1618.946045 670 C 1618.269775 671.924988 1617.143311 675.075012 1616.442993 677 C 1615.742554 678.924988 1614.920532 681.287476 1614.616211 682.25 C 1614.100586 683.880493 1611.16394 684 1571.614136 684 C 1529.165405 684 1529.165405 684 1527.59436 679.75 C 1526.730347 677.412476 1524.63623 671.674988 1522.940918 667 C 1521.245605 662.325012 1519.628906 657.375 1519.348267 656 C 1519.067627 654.625 1518.254761 652.150024 1517.541748 650.5 C 1516.828857 648.849976 1515.685547 645.924988 1515.001221 644 C 1514.316772 642.075012 1508.868652 626.099976 1502.894287 608.5 C 1496.9198 590.900024 1491.510132 575.375 1490.872803 574 C 1490.235352 572.625 1489.516846 570.375 1489.276001 569 C 1489.035156 567.625 1488.254761 565.150024 1487.541748 563.5 C 1486.828857 561.849976 1485.685547 558.924988 1485.001221 557 C 1484.316772 555.075012 1478.868652 539.099976 1472.894287 521.5 C 1466.9198 503.899994 1461.510132 488.375 1460.872803 487 C 1460.235352 485.625 1459.516846 483.375 1459.276001 482 C 1459.035156 480.625 1458.254761 478.149994 1457.541748 476.5 C 1456.828857 474.850006 1455.692261 471.924988 1455.015991 470 C 1454.339844 468.075012 1449.792603 454.799988 1444.911011 440.5 C 1440.029541 426.200012 1435.200806 412.25 1434.180542 409.5 C 1433.160278 406.75 1431.762695 402.924988 1431.074951 401 C 1430.387085 399.075012 1429.441772 396.150024 1428.973999 394.5 C 1428.506348 392.849976 1426.96167 388.349976 1425.54126 384.5 C 1424.120972 380.650024 1421.095947 372.099976 1418.819092 365.5 C 1416.542236 358.900024 1414.370605 351.924988 1413.993164 350 C 1413.41748 347.064087 1413.188965 346.822327 1412.575073 348.5 C 1412.172485 349.599976 1411.039551 352.525024 1410.057373 355 C 1409.075317 357.474976 1407.721069 361.075012 1407.048096 363 C 1406.375 364.924988 1405.453369 367.849976 1405 369.5 C 1404.546631 371.150024 1403.622314 374.075012 1402.946045 376 C 1402.269775 377.924988 1401.169067 381.075012 1400.5 383 C 1399.830933 384.924988 1398.730225 388.075012 1398.053955 390 C 1397.377686 391.924988 1396.442261 394.849976 1395.97522 396.5 C 1395.508301 398.150024 1392.147339 407.599976 1388.506714 417.5 C 1384.865967 427.400024 1381.502075 436.849976 1381.031372 438.5 C 1380.560791 440.150024 1379.622314 443.075012 1378.946045 445 C 1378.269775 446.924988 1377.169067 450.075012 1376.5 452 C 1375.830933 453.924988 1374.730225 457.075012 1374.053955 459 C 1373.377686 460.924988 1372.432617 463.849976 1371.953735 465.5 C 1371.474854 467.150024 1369.264404 473.5625 1367.041504 479.75 C 1364.818726 485.9375 1361.181274 496.0625 1358.958496 502.25 C 1356.735596 508.4375 1354.525146 514.849976 1354.046265 516.5 C 1353.567383 518.150024 1352.622314 521.075012 1351.946045 523 C 1351.269775 524.924988 1350.169067 528.075012 1349.5 530 C 1348.830933 531.924988 1347.730225 535.075012 1347.053955 537 C 1346.377686 538.924988 1345.433472 541.849976 1344.955811 543.5 C 1344.478149 545.150024 1342.218628 551.674988 1339.93457 558 C 1337.650635 564.325012 1334.012329 574.450012 1331.849487 580.5 C 1329.686523 586.549988 1327.525146 592.849976 1327.046265 594.5 C 1326.567383 596.150024 1325.622314 599.075012 1324.946045 601 C 1324.269775 602.924988 1323.169067 606.075012 1322.5 608 C 1321.830933 609.924988 1320.730225 613.075012 1320.053955 615 C 1319.377686 616.924988 1318.433472 619.849976 1317.955811 621.5 C 1317.478149 623.150024 1315.218628 629.674988 1312.93457 636 C 1310.650635 642.325012 1307.012329 652.450012 1304.849487 658.5 C 1302.686523 664.549988 1300.516235 670.849976 1300.026367 672.5 C 1299.536621 674.150024 1298.472168 677.299988 1297.661133 679.5 C 1296.186279 683.5 1296.186279 683.5 1253.669067 683.760681 C 1211.151733 684.021362 1211.151733 684.021362 1209.196533 678.760681 C 1208.121216 675.86731 1190.966553 624.224976 1171.075073 564 C 1151.183594 503.774994 1134.439697 453.150024 1133.866577 451.5 C 1133.293335 449.849976 1132.453369 447.150024 1132 445.5 C 1131.546631 443.849976 1130.622314 440.924988 1129.946045 439 C 1129.269775 437.075012 1128.169067 433.924988 1127.5 432 C 1126.830933 430.075012 1125.730225 426.924988 1125.053955 425 C 1124.377686 423.075012 1123.453369 420.150024 1123 418.5 C 1122.546631 416.849976 1121.622314 413.924988 1120.946045 412 C 1120.269775 410.075012 1119.169067 406.924988 1118.5 405 C 1117.830933 403.075012 1116.730225 399.924988 1116.053955 398 C 1115.377686 396.075012 1114.453369 393.150024 1114 391.5 C 1113.546631 389.849976 1112.622314 386.924988 1111.946045 385 C 1111.269775 383.075012 1110.172974 379.924988 1109.508667 378 C 1108.844482 376.075012 1100.999634 352.224976 1092.075562 325 C 1083.151611 297.775024 1075.421997 274.375 1074.898682 273 C 1074.375488 271.625 1073.525635 269.825012 1073.010254 269 C 1072.219604 267.734497 1067.963989 267.478088 1045.786621 267.359619 L 1019.5 267.219299 Z M 273 604.343628 C 325.422913 604.788086 333.82135 604.541992 334.703522 603.678284 C 335.631653 602.769653 335.917206 564.409546 335.951447 436.03363 C 335.986603 304.227478 335.736023 269.334351 334.747925 268.448486 C 333.87384 267.664856 324.812744 267.407227 304.5 267.588501 C 278.792542 267.817871 275.358093 267.66394 274.25 266.232483 C 273.301483 265.007202 273 255.66925 273 227.514832 L 273 190.411926 L 408.75 190.482483 C 483.412506 190.52124 550.799988 190.872498 558.5 191.262939 C 566.200012 191.653381 574.525024 192.404114 577 192.931152 C 579.474976 193.458191 584.650024 194.424622 588.5 195.078735 C 592.349976 195.732849 597.299988 196.630554 599.5 197.073669 C 601.700012 197.516724 605.75 198.551575 608.5 199.37323 C 611.25 200.194946 615.075012 201.4021 617 202.055786 C 618.924988 202.709473 622.974976 204.382935 626 205.774597 C 629.025024 207.16626 632.625 208.518677 634 208.779968 C 635.375 209.04126 637.400024 210.048767 638.5 211.018921 C 639.599976 211.989075 643.200012 214.203125 646.5 215.939087 C 649.799988 217.674988 654.061401 220.086365 655.969849 221.297668 C 657.878235 222.508972 664.403259 228.463562 670.469849 234.530151 C 676.536438 240.596741 682.492432 247.121765 683.705322 249.030151 C 684.918274 250.938599 688.379517 257.277588 691.396912 263.116882 C 694.535461 269.19043 697.797241 277.321167 699.019165 282.116882 C 700.19397 286.7276 701.585815 293.650024 702.112183 297.5 C 702.638489 301.349976 703.05249 310.624512 703.032104 318.109985 C 703.006348 327.582397 702.416687 334.422668 701.092529 340.609985 C 700.046204 345.499512 698.50177 351.974976 697.660583 355 C 696.819397 358.025024 695.589172 362.075012 694.926758 364 C 694.264404 365.924988 692.843384 369.299988 691.769043 371.5 C 690.694702 373.700012 688.735962 377.299988 687.41626 379.5 C 686.096558 381.700012 684.446411 384.683472 683.749207 386.130005 C 683.052002 387.576477 680.68573 390.840027 678.490784 393.382263 C 676.295837 395.924561 672.089111 400.366028 669.142395 403.252258 C 666.19574 406.13855 661.245728 410.427185 658.142395 412.782654 C 655.039063 415.138062 647.919189 419.346375 642.320435 422.13446 C 635.246277 425.657227 632.303284 427.626709 632.673157 428.590576 C 633.000427 429.443542 634.609741 429.949341 636.852661 429.904236 C 638.858704 429.863892 643.077087 430.535522 646.226929 431.396729 C 649.376709 432.257935 657.758057 435.871033 664.852112 439.425903 C 671.946167 442.980713 679.944031 447.679932 682.625183 449.868652 C 685.306335 452.057312 688.625 454.923462 690 456.237793 C 691.375 457.552185 695.200012 461.707581 698.5 465.472046 C 701.799988 469.236511 705.504333 474.076935 706.731934 476.228485 C 707.959473 478.380066 709.925781 481.491425 711.101563 483.142639 C 712.277344 484.793854 713.808167 488.02475 714.503418 490.322418 C 715.19873 492.620087 716.691956 496.524994 717.821838 499 C 718.95166 501.475006 720.766968 507.774994 721.855774 513 C 722.944641 518.224976 724.361267 527.289185 725.003906 533.142578 C 725.646545 538.995972 725.906189 547.545959 725.580933 552.142578 C 725.255737 556.739136 724.579102 563.200012 724.077332 566.5 C 723.575562 569.799988 722.449951 575.200012 721.575928 578.5 C 720.701904 581.799988 719.276611 586.643555 718.408569 589.263428 C 717.540588 591.88324 716.269897 594.58728 715.584839 595.272339 C 714.89978 595.957397 714.498596 596.99585 714.693359 597.580078 C 714.888062 598.164307 714.355713 600.297729 713.510315 602.321045 C 712.664978 604.344299 711.124207 606.530029 710.086426 607.178101 C 709.048645 607.826172 708.43811 608.978149 708.729675 609.737915 C 709.02124 610.497742 708.149109 612.330017 706.791565 613.809692 C 705.434021 615.289368 703.463074 617.97937 702.411682 619.787415 C 701.360229 621.59552 696.674988 626.932068 692 631.646423 C 687.325012 636.360779 681.700012 641.506104 679.5 643.080444 C 677.299988 644.654785 674.825012 646.532349 674 647.252808 C 673.174988 647.973267 669.97644 650.198303 666.89209 652.197266 C 663.807739 654.196228 658.182739 657.369629 654.39209 659.249268 C 650.60144 661.128906 643.224976 664.317993 638 666.336121 C 632.775024 668.354248 622.424988 671.539368 615 673.414185 C 607.575012 675.289063 595.875 677.557312 589 678.454773 C 582.125 679.352173 570.200012 680.388794 562.5 680.758362 C 554.799988 681.12793 486.934692 681.476929 411.688232 681.533936 C 282.261719 681.63208 274.825806 681.54303 273.938232 679.884583 C 273.402557 678.883667 273 662.30188 273 641.237549 L 273 604.343628 Z M 2242.755859 681.545044 C 2165.34668 681.589172 2101.509033 681.314575 2100.894531 680.934814 C 2100.102783 680.445557 2099.791748 669.501709 2099.82666 643.372192 C 2099.85376 623.092468 2100.241455 606.026733 2100.687988 605.448242 C 2101.22583 604.751709 2111.529297 604.418701 2131.195068 604.462402 C 2160.141846 604.526611 2160.903809 604.477539 2161.431396 602.51416 C 2161.729004 601.406372 2161.971924 526.025024 2161.970947 435 C 2161.970215 343.974976 2161.632568 268.970398 2161.220947 268.32312 C 2160.665527 267.449951 2153.251465 267.254333 2132.486084 267.565125 C 2117.09375 267.795471 2103.44873 267.650085 2102.163574 267.242004 C 2099.827393 266.5 2099.827393 266.5 2099.855469 229.5 C 2099.87085 209.150024 2100.247314 192.001831 2100.69165 191.392944 C 2101.276611 190.591736 2140.181885 190.31543 2241.5 190.392944 C 2380.343994 190.499146 2381.648682 190.518555 2399.5 192.749207 C 2409.399902 193.986267 2422.675049 196.310059 2429 197.913208 C 2435.324951 199.516357 2442.074951 201.357483 2444 202.004578 C 2445.925049 202.651733 2454.475098 206.619446 2463 210.821777 C 2471.524902 215.024109 2480.074951 219.836609 2482 221.516296 C 2483.925049 223.195923 2487.312988 225.732483 2489.528809 227.152954 C 2491.744873 228.573486 2495.886963 232.284241 2498.733643 235.399048 C 2501.580566 238.513855 2505.257324 242.960815 2506.904297 245.281189 C 2508.55127 247.601501 2511.55542 252.200012 2513.579834 255.5 C 2515.604492 258.799988 2518.607422 264.650024 2520.252686 268.5 C 2521.898193 272.349976 2524.04248 278.432495 2525.017822 282.016602 C 2525.993164 285.600769 2527.353516 291.900757 2528.041016 296.016602 C 2528.728516 300.132507 2529.320557 309.125 2529.356934 316 C 2529.393555 322.875 2528.85083 331.875 2528.151367 336 C 2527.451904 340.125 2526.060547 346.650024 2525.059326 350.5 C 2524.058105 354.349976 2522.672363 359.075012 2521.979736 361 C 2521.287354 362.924988 2518.911133 368.549988 2516.699707 373.5 C 2514.488037 378.450012 2511.712646 383.625 2510.532227 385 C 2509.351807 386.375 2507.218262 389.299988 2505.791016 391.5 C 2504.36377 393.700012 2499.583008 399.058655 2495.166748 403.408142 C 2490.750732 407.757629 2485.020752 412.707642 2482.433594 414.408142 C 2479.846436 416.108643 2476.390869 418.35791 2474.754395 419.406433 C 2473.118164 420.455017 2469.241699 422.341003 2466.139648 423.597595 C 2462.131592 425.221313 2460.40625 426.488403 2460.175781 427.977478 C 2459.898682 429.767334 2460.335938 430.055542 2463.175781 429.955078 C 2465.00415 429.890442 2469.307129 430.542603 2472.737793 431.404358 C 2476.168701 432.266052 2483.818604 435.471069 2489.737793 438.52655 C 2495.656982 441.582031 2502.975098 445.814636 2506 447.932312 C 2509.024902 450.050049 2515.550049 456.026428 2520.5 461.213135 C 2525.449951 466.399841 2530.491455 472.186249 2531.703125 474.071777 C 2532.915039 475.957306 2535.56665 480.649994 2537.595703 484.5 C 2539.624756 488.350006 2541.953369 493.524994 2542.770264 496 C 2543.587402 498.475006 2544.853271 501.850006 2545.583496 503.5 C 2546.313721 505.149994 2547.900146 511.674988 2549.109131 518 C 2550.852295 527.120422 2551.307861 533.136963 2551.310303 547.076599 C 2551.312988 561.949951 2550.976318 565.94873 2549.120117 573.076599 C 2547.913818 577.709473 2546.318848 583.75 2545.576172 586.5 C 2544.833252 589.25 2541.587158 596.709045 2538.362793 603.075623 C 2535.138184 609.442261 2530.475098 617.317261 2528 620.575623 C 2525.524902 623.834045 2520.800049 629.213257 2517.5 632.52948 C 2514.199951 635.845703 2508.346924 641.065063 2504.493164 644.128052 C 2500.639404 647.19104 2496.139404 650.454834 2494.493164 651.380798 C 2492.846924 652.306824 2489.475098 654.234253 2487 655.664001 C 2484.524902 657.09375 2480.925049 659.026855 2479 659.959717 C 2477.074951 660.892578 2472.125 663.01709 2468 664.680664 C 2463.875 666.34436 2458.925049 668.251221 2457 668.918335 C 2455.074951 669.585327 2451.024902 670.828369 2448 671.680664 C 2444.975098 672.532837 2440.475098 673.657227 2438 674.179138 C 2435.524902 674.701111 2432.600098 675.31366 2431.5 675.540405 C 2430.399902 675.767212 2427.024902 676.444275 2424 677.045105 C 2420.975098 677.645935 2417.149902 678.281494 2415.5 678.45752 C 2413.850098 678.633484 2405.975098 679.382141 2398 680.121155 C 2386.724365 681.166016 2352.203369 681.482666 2242.755859 681.545044 Z M 484.763641 604.507935 C 518.718628 604.422974 551.450012 604.020935 557.5 603.614502 C 563.549988 603.20813 572.099976 602.201111 576.5 601.376709 C 580.900024 600.552307 587.285339 598.977661 590.689636 597.877441 C 594.093994 596.777222 601.518982 593.399719 607.189636 590.371826 C 612.860352 587.343933 619.6875 582.759033 622.361145 580.183289 C 625.034729 577.607483 627.734741 574.342773 628.361145 572.928284 C 628.987488 571.513855 630.73761 568.891663 632.250305 567.101196 C 633.762939 565.310791 635.256653 562.643066 635.569641 561.172974 C 635.882629 559.70282 636.763123 556.700012 637.526306 554.5 C 638.28949 552.299988 639.214233 545.549988 639.581238 539.5 C 640.103882 530.884338 639.892822 527.091064 638.607483 522 C 637.704895 518.424988 635.5849 512.665344 633.896301 509.200745 C 632.207764 505.736145 629.140259 501.236145 627.079651 499.200745 C 625.019104 497.165344 621.30304 493.841858 618.821838 491.815277 C 616.340576 489.788666 611.878113 487.031128 608.905212 485.687439 C 605.932373 484.343719 601.924988 482.700562 600 482.03598 C 598.075012 481.371399 592.450012 479.914185 587.5 478.79776 C 578.986511 476.877625 574.316162 476.743011 501.105988 476.307953 C 437.536926 475.930176 423.560333 476.0849 422.863129 477.174011 C 422.396301 477.90332 422.003723 505.5 421.990784 538.5 C 421.977814 571.5 422.20575 599.886597 422.497284 601.581238 C 423.027313 604.662476 423.027313 604.662476 484.763641 604.507935 Z M 2248.057373 476 C 2248.049805 574.685303 2248.437988 602.822876 2248.938965 603.426392 C 2249.557617 604.171814 2268.884766 604.47522 2312.165039 604.419006 C 2346.449219 604.374451 2379.675049 603.983887 2386 603.551147 C 2393.519531 603.036621 2401.999756 601.611267 2410.5 599.433167 C 2419.325928 597.171631 2425.907959 594.781921 2431 591.99054 C 2435.125 589.729248 2440.074951 586.780273 2442 585.437256 C 2443.925049 584.094238 2446.434082 582.200439 2447.575439 581.22876 C 2448.717041 580.25708 2450.486572 578.120605 2451.507813 576.481079 C 2452.528809 574.841431 2454.35791 572.375 2455.572021 571 C 2456.786377 569.625 2458.76416 566.537415 2459.967041 564.138672 C 2461.169922 561.73999 2463.008789 556.565002 2464.053467 552.638672 C 2465.303711 547.940063 2465.960938 542.08313 2465.976563 535.503418 C 2465.99585 527.306885 2465.520752 524.065674 2463.337891 517.503418 C 2461.873779 513.101563 2459.311523 507.475006 2457.643799 505 C 2455.976318 502.524994 2452.111572 498.320404 2449.055908 495.656464 C 2446.000244 492.992523 2441.475098 489.565094 2439 488.039948 C 2436.524902 486.514801 2431.350098 484.144592 2427.5 482.772797 C 2423.649902 481.401031 2417.800049 479.723846 2414.5 479.045746 C 2411.199951 478.367645 2404.225098 477.426788 2399 476.954956 C 2393.774902 476.483154 2357.675293 476.075256 2318.778564 476.048553 L 2248.057373 476 Z M 480.264862 397.534607 C 511.744202 397.457153 542 397.04541 547.5 396.619568 C 553 396.193787 561.325012 395.02655 566 394.025757 C 570.674988 393.024902 578.223511 390.619812 582.774475 388.68103 C 587.325439 386.74231 593.175476 383.787537 595.774475 382.11499 C 598.373535 380.442383 601.554321 378.0448 602.842957 376.786987 C 604.131592 375.529114 606.882813 372.239624 608.956848 369.476929 C 611.030884 366.714233 613.723755 362.501648 614.94104 360.115601 C 616.158264 357.729614 618.008911 352.565002 619.053589 348.638733 C 620.377991 343.66095 620.960083 338.062622 620.97644 330.144592 C 620.995789 320.835083 620.550476 317.321838 618.504822 310.644592 C 617.132446 306.1651 615.050232 300.924988 613.877625 299 C 612.705017 297.075012 608.540344 292.414795 604.622803 288.644043 C 600.705261 284.873291 595.013367 280.530212 591.974121 278.992798 C 588.934875 277.455383 581.959839 274.840515 576.474121 273.182007 C 570.988342 271.523499 562 269.568054 556.5 268.836548 C 549.143555 267.858154 530.242004 267.493225 485 267.456177 C 443.23941 267.421936 423.261597 267.741882 422.757263 268.452881 C 422.348785 269.028809 422.003784 296.950012 421.990662 330.5 C 421.977539 364.049988 422.205933 392.889465 422.49826 394.587708 C 423.029755 397.675476 423.029755 397.675476 480.264862 397.534607 Z M 2308.165039 397.496582 C 2349.649414 397.494141 2369.966309 397.112732 2378.5 396.17627 C 2385.100098 395.452026 2392.975098 394.175842 2396 393.340332 C 2399.024902 392.504822 2404.348877 390.707581 2407.830811 389.346497 C 2411.312744 387.985413 2416.708984 385.242249 2419.822266 383.250671 C 2422.935791 381.259033 2427.877441 377.125366 2430.803955 374.064758 C 2433.730469 371.00415 2437.286133 366.375732 2438.705322 363.779358 C 2440.124756 361.182983 2441.748047 359.344299 2442.312988 359.693359 C 2442.939697 360.080811 2443.088379 359.672913 2442.69458 358.646362 C 2442.3396 357.721436 2442.683105 355.510132 2443.458008 353.732361 C 2444.232666 351.954529 2445.364014 348.31897 2445.972168 345.653259 C 2446.580078 342.987488 2447.336182 337.362488 2447.6521 333.153259 C 2448.091797 327.296204 2447.736328 323.451843 2446.137451 316.773254 C 2444.988525 311.973511 2442.499512 304.998474 2440.606201 301.273254 C 2438.491455 297.111938 2434.809814 292.186218 2431.059082 288.5 C 2427.701416 285.200012 2424.150391 282.275024 2423.168213 282 C 2422.185791 281.724976 2420.0979 280.477722 2418.528564 279.228271 C 2416.959229 277.978821 2414.510742 276.708679 2413.087402 276.405762 C 2411.664307 276.102844 2408.925049 275.247742 2407 274.505554 C 2405.074951 273.763367 2401.25 272.628418 2398.5 271.983398 C 2395.75 271.338379 2390.800049 270.39386 2387.5 269.884521 C 2384.199951 269.375122 2377.675049 268.630188 2373 268.229187 C 2368.324951 267.828125 2338.850098 267.5 2307.5 267.5 C 2270.009033 267.5 2250.075439 267.851196 2249.259766 268.526001 C 2248.296387 269.322998 2248.023682 283.594727 2248.038574 332.458191 C 2248.049072 367.514038 2248.449951 395.837097 2248.943848 396.43219 C 2249.553711 397.166992 2268.021484 397.498901 2308.165039 397.496582 Z M 1039.5 104.523682 C 1038.400024 104.876099 1040.668213 103.345398 1044.540405 101.12207 C 1048.41272 98.898804 1053.47522 95.330933 1055.790405 93.193481 C 1058.105713 91.05603 1060 89.646179 1060 90.060486 C 1060 90.474792 1057.862549 92.585144 1055.25 94.750183 C 1052.637451 96.915222 1048.474976 99.855774 1046 101.28479 C 1043.525024 102.713745 1040.599976 104.171265 1039.5 104.523682 Z" style="fill: rgb(255, 255, 255);"/>
</svg>